<?xml version="1.0" encoding="UTF-8" standalone="no"?>
<svg width="247px" height="74px" viewBox="0 0 247 74" version="1.1" xmlns="http://www.w3.org/2000/svg" xmlns:xlink="http://www.w3.org/1999/xlink">
    <!-- Generator: Sketch 40.1 (33804) - http://www.bohemiancoding.com/sketch -->
    <title>Slice 1</title>
    <desc>Created with Sketch.</desc>
    <defs></defs>
    <g id="Page-1" stroke="none" stroke-width="1" fill="none" fill-rule="evenodd">
        <g id="pnc_4c-01">
            <polygon id="Shape" fill="#FFFFFF" points="38.963 5.917 25.146 5.917 15.374 12.659 12.679 46.353 15.374 60.507 20.428 67.58 26.832 69.266 44.689 64.55 69.626 42.983 71.645 33.888 67.602 26.476"></polygon>
            <path d="M66.856,72.854 C64.629,72.854 62.842,71.04 62.842,68.827 C62.842,66.616 64.629,64.827 66.856,64.827 C69.04,64.827 70.842,66.616 70.842,68.827 C70.842,71.039 69.04,72.854 66.856,72.854 L66.856,72.854 Z M66.856,63.9 C64.114,63.9 61.916,66.086 61.916,68.826 C61.916,71.568 64.113,73.779 66.856,73.779 C69.585,73.779 71.77,71.568 71.77,68.826 C71.77,66.086 69.585,63.9 66.856,63.9 L66.856,63.9 Z M66.235,69.303 L66.563,69.303 C67.571,69.303 67.465,69.887 67.465,70.563 C67.465,70.946 67.465,71.329 67.637,71.674 L68.908,71.674 C68.789,71.436 68.762,70.363 68.762,69.992 C68.762,68.963 67.914,68.892 67.637,68.879 L67.637,68.854 C68.485,68.723 68.789,68.178 68.789,67.45 C68.789,66.47 68.219,65.94 67.332,65.94 L64.936,65.94 L64.936,71.674 L66.235,71.674 L66.235,69.303 L66.235,69.303 Z M66.235,66.895 L66.817,66.895 C67.227,66.895 67.491,67.106 67.491,67.649 C67.491,68.018 67.333,68.495 66.817,68.495 L66.235,68.495 L66.235,66.895 L66.235,66.895 Z" id="Shape" fill="#F58025"></path>
            <g id="Group" transform="translate(85.000000, 10.000000)" fill="#0069AA">
                <path d="M24.257,1.186 L0.612,1.186 L0.071,1.186 L0.071,3.537 L0.547,3.594 C8.969,4.615 9.825,5.723 9.825,10.018 L9.825,54.775 L19.411,54.775 L19.411,31.503 L23.278,31.503 C32.388,31.503 51.343,31.503 51.343,16.384 C51.342,1.186 33.723,1.186 24.257,1.186 L24.257,1.186 Z M23.082,27.381 L19.411,27.381 L19.411,10.012 C19.411,5.935 19.411,5.309 27.196,5.309 C35.943,5.309 40.76,9.243 40.76,16.385 C40.759,26.075 31.824,27.381 23.082,27.381 L23.082,27.381 Z" id="Shape"></path>
                <path d="M105.574,1.191 L99.94,1.191 L99.94,42.962 C98.453,40.891 69.958,1.191 69.958,1.191 L49.616,1.191 L49.616,3.531 L50.087,3.593 C58.317,4.665 59.369,5.03 59.369,10.944 L59.369,54.774 L65.543,54.774 L65.543,9.85 C67.037,11.927 97.864,54.774 97.864,54.774 L106.114,54.774 L106.114,1.191 L105.574,1.191 L105.574,1.191 Z" id="Shape"></path>
                <path d="M113.463,26.226 C113.463,40.856 122.391,55.617 142.337,55.617 C151.807,55.617 156.478,54.574 160.807,53.415 L161.208,53.308 L161.208,48.912 L160.474,49.11 C155.87,50.344 151.345,51.025 147.731,51.025 C131.794,51.025 124.048,42.252 124.048,24.199 C124.048,12.135 129.785,4.934 139.395,4.934 C145.839,4.934 149.621,7.464 150.636,12.454 L150.722,12.886 L161.282,12.886 L161.204,12.278 C160.846,9.479 158.256,0.342 139.984,0.342 C122.386,0.343 113.463,9.051 113.463,26.226 L113.463,26.226 Z" id="Shape"></path>
            </g>
            <path d="M55.264,42.51 L47.704,42.51 C48.09,41.451 47.927,40.289 47.207,39.049 L34.884,17.706 C33.086,14.589 31.288,12.112 29.515,10.278 C29.554,10.297 29.584,10.315 29.621,10.337 C34.556,13.038 44.407,18.597 63.293,29.691 L64.377,30.323 C67.862,32.355 69.94,35.486 69.319,37.785 C68.513,40.786 63.389,42.51 55.264,42.51 L55.264,42.51 Z M30.659,63.793 L29.584,64.405 C26.087,66.413 22.334,66.648 20.652,64.959 C18.457,62.754 19.526,57.455 23.59,50.425 L27.371,43.874 C28.093,44.74 29.183,45.173 30.618,45.173 L55.264,45.173 C58.858,45.173 61.902,44.858 64.378,44.243 C64.342,44.264 64.312,44.275 64.277,44.302 C59.461,47.223 49.713,52.99 30.659,63.793 L30.659,63.793 Z M17.456,18.471 L17.468,17.239 C17.481,13.211 19.156,9.834 21.456,9.224 C24.462,8.426 28.514,12.002 32.575,19.037 L36.351,25.571 C35.252,25.764 34.326,26.495 33.606,27.742 L21.283,49.092 C19.482,52.2 18.237,54.998 17.535,57.449 C17.533,57.412 17.53,57.375 17.53,57.332 C17.409,51.696 17.294,40.382 17.456,18.471 L17.456,18.471 Z M37.147,0.714 C16.923,0.714 0.53,17.107 0.53,37.323 C0.53,57.542 16.923,73.932 37.147,73.932 C57.363,73.932 73.757,57.541 73.757,37.323 C73.757,17.106 57.363,0.714 37.147,0.714 L37.147,0.714 Z" id="Shape" fill="#F58025"></path>
        </g>
    </g>
</svg>