<svg id="Layer_1" data-name="Layer 1" xmlns="http://www.w3.org/2000/svg" viewBox="0 0 209.27 24.02"><defs><style>.cls-1{fill:#fff;}</style></defs><title>Artboard 1</title><path class="cls-1" d="M101.47,11.34,98.89,19H96.11L92.18,6.28h3.54l2,7.57,2.5-7.57h2.47l2.48,7.36.14,0,1.92-7.31h3.47c-1.21,4.3-2.57,8.5-3.84,12.77h-2.81Z"/><path class="cls-1" d="M164.29,7.25l.11-.85h3.09c0,.28.06.54.06.79,0,3.79,0,7.59,0,11.38A5.18,5.18,0,0,1,162.12,24a17.35,17.35,0,0,1-2.37-.2,4.31,4.31,0,0,1-2.58-1.48l2.06-2c1.23.85,2.56,1.4,4,.5,1.06-.68,1.07-1.82.94-3.13a4.7,4.7,0,0,1-3.33,1A3.94,3.94,0,0,1,157,15a25.43,25.43,0,0,1,0-5.16,3.93,3.93,0,0,1,3.89-3.66A4.57,4.57,0,0,1,164.29,7.25Zm0,5.28h-.13c0-.46,0-.93,0-1.39a2.71,2.71,0,0,0-.18-.67,1.89,1.89,0,0,0-3.56,0,7.63,7.63,0,0,0,0,3.92,1.89,1.89,0,0,0,3.53.07A16.1,16.1,0,0,0,164.26,12.54Z"/><path class="cls-1" d="M12.87,7H9.34c-.08-.15-.18-.32-.25-.5a2.92,2.92,0,0,0-3-2A2.76,2.76,0,0,0,3.53,7.26a48.92,48.92,0,0,0,0,6.08,2.79,2.79,0,0,0,4.58,2.13,8.61,8.61,0,0,0,1.33-1.82h3.35a6,6,0,0,1-4.65,5.41A6.68,6.68,0,0,1,.8,16.34a6.85,6.85,0,0,1-.87-3.63c0-2,.09-4,.14-6A5.74,5.74,0,0,1,4.8,1.53a7,7,0,0,1,5.18.8A6.32,6.32,0,0,1,12.87,7Z"/><path class="cls-1" d="M39.31,19V1.58h3.27V7.17a5.18,5.18,0,0,1,3.36-1.09,4,4,0,0,1,3.9,3.66c.08,1,.12,1.92.13,2.88,0,1.8,0,3.59,0,5.39,0,.33,0,.65-.05,1H46.7c0-.26-.05-.54-.05-.82,0-2.23,0-4.46,0-6.69a2.21,2.21,0,0,0-1-2.15,1.93,1.93,0,0,0-3,1.62c-.05,2.29,0,4.59,0,6.89,0,.36,0,.72,0,1.15Z"/><path class="cls-1" d="M174.32,19.18H171V1.72h3.28v5.5c.29-.16.47-.25.65-.37,2.26-1.42,6.43-.75,6.6,3.38.12,2.82.09,5.65.12,8.47a2.44,2.44,0,0,1-.09.45h-3.24c0-.67,0-1.32,0-2,0-1.76,0-3.53,0-5.29a5,5,0,0,0-.14-1.18A1.87,1.87,0,0,0,176,9.22a1.83,1.83,0,0,0-1.7,1.87c0,2.06,0,4.13,0,6.19C174.32,17.87,174.32,18.47,174.32,19.18Z"/><path class="cls-1" d="M62.75,12v7H59.28V1.58H70.75V4.66h-7.9V8.88h6.7V12Z"/><path class="cls-1" d="M20.39,11.36c.08-2-1.1-2.88-3-2.39a10.8,10.8,0,0,0-1.83.88C15.3,9.63,15,9.28,14.6,9s-.71-.59-1.1-.92a3.93,3.93,0,0,1,2-1.55,9.07,9.07,0,0,1,5.76.05A3.57,3.57,0,0,1,23.68,10c0,2.83,0,5.65,0,8.48,0,.16,0,.32,0,.52H20.57c0-.1-.06-.21-.08-.33s0-.24-.07-.44a4.7,4.7,0,0,1-3.22,1c-2-.16-3.39-.68-4-2.81-.8-2.93,1.11-4.89,3.35-5,.93,0,1.86-.08,2.78-.12C19.68,11.35,20,11.36,20.39,11.36Zm0,2.34H18.46a5.75,5.75,0,0,0-.8,0,2,2,0,0,0-.66.21,1.26,1.26,0,0,0-.74,1.29,1.22,1.22,0,0,0,.84,1.11,2.26,2.26,0,0,0,3.33-2.08C20.44,14.12,20.42,14,20.4,13.7Z"/><path class="cls-1" d="M91.27,12.75c-.08.72-.17,1.45-.24,2.17a4.89,4.89,0,0,1-4.82,4.33,5.13,5.13,0,0,1-5.06-2.33A6,6,0,0,1,80.44,15a13,13,0,0,1,0-4.85,4.88,4.88,0,0,1,4.26-4,6,6,0,0,1,4.22.79,5.38,5.38,0,0,1,2.27,4.43c0,.46,0,.93,0,1.4Zm-3.35,0a19.42,19.42,0,0,0-.31-2.15,1.74,1.74,0,0,0-1.93-1.5,1.81,1.81,0,0,0-1.85,1.49,8.58,8.58,0,0,0,0,4.32,2,2,0,0,0,1.86,1.39A1.91,1.91,0,0,0,87.54,15,21.46,21.46,0,0,0,87.92,12.73Z"/><path class="cls-1" d="M135.09,19.2h-3.25c0-.31-.05-.59-.05-.88,0-2.29,0-4.59,0-6.88a2,2,0,0,0-1.07-2,2,2,0,0,0-2.93,1.36,7.21,7.21,0,0,0-.14,1.38c0,2.29,0,4.59,0,7h-3.21V6.45h3.06l.23.82A4.63,4.63,0,0,1,131,6.21a4,4,0,0,1,4,3.25,7.62,7.62,0,0,1,.2,1.68c0,2.53,0,5.06,0,7.58C135.15,18.85,135.12,19,135.09,19.2Z"/><path class="cls-1" d="M137.18,17.5l2.09-2.19a5,5,0,0,0,4,1.14,3.39,3.39,0,0,0,.86-.22,1,1,0,0,0,.68-1.09,1,1,0,0,0-.91-.9c-.62-.11-1.25-.13-1.88-.21a12.39,12.39,0,0,1-1.76-.29,3.16,3.16,0,0,1-2.45-2.82,3.7,3.7,0,0,1,1.66-3.8,5.21,5.21,0,0,1,2.81-.89,9,9,0,0,1,3.63.43c.63.25,1.23.62,2,1l-2.12,2.23A4.45,4.45,0,0,0,142.54,9a2.62,2.62,0,0,0-.77.15A1,1,0,0,0,141,10.2a1,1,0,0,0,.88.83c1,.14,2,.25,3,.38a3.45,3.45,0,0,1,3.23,2.9,3.83,3.83,0,0,1-1.79,4.2,7.88,7.88,0,0,1-5,.82,6,6,0,0,1-3.88-1.58C137.33,17.68,137.27,17.6,137.18,17.5Z"/><path class="cls-1" d="M25.85,17.47,28,15.21a4.83,4.83,0,0,0,3.82,1.12,4,4,0,0,0,1.06-.26.94.94,0,0,0,.64-1,1,1,0,0,0-.87-.95C32,14,31.37,14,30.74,13.89l-1.18-.16a3.26,3.26,0,0,1-3.07-2.79,3.89,3.89,0,0,1,2-4.2c1.73-1.08,6.43-.86,7.84.86a15.36,15.36,0,0,1-2,2.09,4.59,4.59,0,0,0-3-.83,4.5,4.5,0,0,0-.6,0c-.67.12-1.13.57-1.12,1.08s.33.83,1.08,1,1.78.22,2.66.35c2,.3,3.19,1.35,3.36,3.21A3.76,3.76,0,0,1,34.3,18.7a7.86,7.86,0,0,1-4.3.5,13.23,13.23,0,0,1-2.76-.74A6.55,6.55,0,0,1,25.85,17.47Z"/><path class="cls-1" d="M190.66,9.24h-2.05c0,.27-.08.52-.08.78q0,2.5,0,5c0,1.09.32,1.39,1.43,1.41h.73V19.2a20.26,20.26,0,0,1-2.61,0,3.48,3.48,0,0,1-2.91-3.63c0-1.73,0-3.46,0-5.19,0-.33,0-.66,0-1L184,9.19V6.73l1.17-.12V3h3.36V6.66h2.15Z"/><path class="cls-1" d="M73.32,1.55H76.6V2.63q0,6,0,12c0,1.53.13,1.66,1.62,1.68l.66,0v2.73a20.55,20.55,0,0,1-2.8,0,3.35,3.35,0,0,1-2.84-3.25c0-4.62,0-9.25,0-13.87A2.23,2.23,0,0,1,73.32,1.55Z"/><path class="cls-1" d="M117.25,1.68h3.44V19.17h-3.44Z"/><path class="cls-1" d="M153.89,19.2h-3.22V6.38h3.22Z"/><path class="cls-1" d="M202.09,9.61h-1.27V.82h1.82l2.42,7.09L207.53.77h1.74V9.59h-1.13V3.2l-.18,0-2.22,6.45h-1.35l-2.16-6.29-.14,0Z"/><path class="cls-1" d="M199.09,3.42H198a1.88,1.88,0,0,0-1.89-1.69,4.22,4.22,0,0,0-1.53.29,1.09,1.09,0,0,0-.65,1.14.9.9,0,0,0,.76.91l2.1.57c.32.08.65.13,1,.23A2.31,2.31,0,0,1,199.49,7,2.33,2.33,0,0,1,198,9.48a4.34,4.34,0,0,1-4.77-.42,2.37,2.37,0,0,1-.84-2.35l1-.06a1.77,1.77,0,0,1,.2.45c.2,1.83,2.74,2.07,3.95,1.22a1.14,1.14,0,0,0-.25-2.1,16.41,16.41,0,0,0-2-.58c-.35-.1-.71-.16-1.06-.26a2.06,2.06,0,0,1-1.65-1.66,2.51,2.51,0,0,1,.82-2.43,4.14,4.14,0,0,1,5.07.13A2.27,2.27,0,0,1,199.09,3.42Z"/><path class="cls-1" d="M150.6,4.2V1.68h3.31V4.2Z"/></svg>