<?xml version="1.0" encoding="UTF-8"?>
<svg width="88px" height="85px" viewBox="0 0 88 85" version="1.1" xmlns="http://www.w3.org/2000/svg" xmlns:xlink="http://www.w3.org/1999/xlink">
    <!-- Generator: Sketch 46.2 (44496) - http://www.bohemiancoding.com/sketch -->
    <title>badge-2</title>
    <desc>Created with Sketch.</desc>
    <defs>
        <path d="M48.7234091,1.54275619 L84.7235737,27.8726255 L84.7235737,27.8726255 C87.5088759,29.9097451 88.6740668,33.5032564 87.6141105,36.7871957 L73.841772,79.4564275 L73.841772,79.4564275 C72.7754313,82.7601468 69.7000716,84.9991011 66.2285239,84.9991011 L21.7728716,84.9991011 L21.7728716,84.9991011 C18.3013239,84.9991011 15.2259642,82.7601468 14.1596235,79.4564275 L0.387285041,36.7871957 L0.387285041,36.7871957 C-0.672671303,33.5032564 0.492519657,29.9097451 3.27782182,27.8726255 L39.2779864,1.54275619 L39.2779864,1.54275619 C42.0904818,-0.514252064 45.9109137,-0.514252064 48.7234091,1.54275619 Z" id="path-1"></path>
    </defs>
    <g id="Mobile" stroke="none" stroke-width="1" fill="none" fill-rule="evenodd">
        <g id="Timeline" transform="translate(-29.000000, -599.000000)">
            <g id="badge-2" transform="translate(29.000000, 599.000000)">
                <g id="Polygon">
                    <use fill="#FFFFFF" fill-rule="evenodd" xlink:href="#path-1"></use>
                    <path stroke="#C9C9C9" stroke-width="2" d="M48.1330702,2.34991167 C45.6721367,0.550029444 42.3292588,0.550029444 39.8683253,2.34991167 L3.86816074,28.679781 C1.43102135,30.4622607 0.411479255,33.6065831 1.33894106,36.4800299 L15.1112795,79.1492617 C16.0443276,82.0400161 18.7352673,83.9991011 21.7728716,83.9991011 L66.2285239,83.9991011 C69.2661282,83.9991011 71.9570679,82.0400161 72.890116,79.1492617 L86.6624545,36.4800299 C87.5899163,33.6065831 86.5703742,30.4622607 84.1332348,28.679781 L48.1330702,2.34991167 Z"></path>
                </g>
                <text id="5-DAYS" font-family="PNCSans-Bold, PNC Sans" font-size="12" font-weight="bold" line-spacing="16" fill="#C9C9C9">
                    <tspan x="24.09" y="75">5 DAYS</tspan>
                </text>
                <path d="M60.3862928,41.5 L58.5420561,41.5 L56.4672897,28.1153846 C56.3520249,27.4230769 55.7757009,26.8461538 55.0841121,26.8461538 L53.8161994,26.8461538 L53.8161994,20.5 C53.8161994,19.6923077 53.1246106,19 52.317757,19 L50.1277259,19 C49.8971963,19 49.5514019,19.1153846 49.3208723,19.2307692 L48.2834891,19.9230769 L46.0934579,19.1153846 C45.6323988,19 45.1713396,19 44.8255452,19.2307692 C44.4797508,19.4615385 44.2492212,19.9230769 44.2492212,20.3846154 L44.2492212,26.7307692 L31.8006231,26.7307692 C31.1090343,26.7307692 30.5327103,27.1923077 30.4174455,28 L28.3426791,41.3846154 L26.4984424,41.3846154 C25.6915888,41.3846154 25,42.0769231 25,42.8846154 L25,53.5 C25,54.3076923 25.6915888,55 26.4984424,55 L60.5015576,55 C61.3084112,55 62,54.3076923 62,53.5 L62,42.8846154 C61.8847352,42.1923077 61.1931464,41.5 60.3862928,41.5 Z M47.0155763,22.6923077 L47.9376947,23.0384615 C48.3987539,23.1538462 48.8598131,23.1538462 49.2056075,22.9230769 L50.4735202,22.1153846 L50.8193146,22.1153846 L50.8193146,27.0769231 L47.0155763,27.0769231 L47.0155763,22.6923077 Z M33.0685358,29.8461538 L45.6323988,29.8461538 L52.317757,29.8461538 L53.8161994,29.8461538 L55.6604361,41.5 L31.2242991,41.5 L33.0685358,29.8461538 Z M59.0031153,52.2307692 L27.8816199,52.2307692 L27.8816199,44.5 L29.6105919,44.5 L57.2741433,44.5 L59.0031153,44.5 L59.0031153,52.2307692 Z M47.4642857,39 C46.7344809,39 46.1428571,38.4030463 46.1428571,37.6666667 C46.1428571,36.930287 46.7344809,36.3333333 47.4642857,36.3333333 C48.1940906,36.3333333 48.7857143,36.930287 48.7857143,37.6666667 C48.7857143,38.4030463 48.1940906,39 47.4642857,39 Z M51.4285714,39 C50.6987666,39 50.1071429,38.4030463 50.1071429,37.6666667 C50.1071429,36.930287 50.6987666,36.3333333 51.4285714,36.3333333 C52.1583763,36.3333333 52.75,36.930287 52.75,37.6666667 C52.75,38.4030463 52.1583763,39 51.4285714,39 Z M43.5,39 C42.7701952,39 42.1785714,38.4030463 42.1785714,37.6666667 C42.1785714,36.930287 42.7701952,36.3333333 43.5,36.3333333 C44.2298048,36.3333333 44.8214286,36.930287 44.8214286,37.6666667 C44.8214286,38.4030463 44.2298048,39 43.5,39 Z M39.5357143,39 C38.8059094,39 38.2142857,38.4030463 38.2142857,37.6666667 C38.2142857,36.930287 38.8059094,36.3333333 39.5357143,36.3333333 C40.2655191,36.3333333 40.8571429,36.930287 40.8571429,37.6666667 C40.8571429,38.4030463 40.2655191,39 39.5357143,39 Z M49.4464286,35 C48.7166237,35 48.125,34.4030463 48.125,33.6666667 C48.125,32.930287 48.7166237,32.3333333 49.4464286,32.3333333 C50.1762334,32.3333333 50.7678571,32.930287 50.7678571,33.6666667 C50.7678571,34.4030463 50.1762334,35 49.4464286,35 Z M45.4821429,35 C44.752338,35 44.1607143,34.4030463 44.1607143,33.6666667 C44.1607143,32.930287 44.752338,32.3333333 45.4821429,32.3333333 C46.2119477,32.3333333 46.8035714,32.930287 46.8035714,33.6666667 C46.8035714,34.4030463 46.2119477,35 45.4821429,35 Z M41.5178571,35 C40.7880523,35 40.1964286,34.4030463 40.1964286,33.6666667 C40.1964286,32.930287 40.7880523,32.3333333 41.5178571,32.3333333 C42.247662,32.3333333 42.8392857,32.930287 42.8392857,33.6666667 C42.8392857,34.4030463 42.247662,35 41.5178571,35 Z M37.5535714,35 C36.8237666,35 36.2321429,34.4030463 36.2321429,33.6666667 C36.2321429,32.930287 36.8237666,32.3333333 37.5535714,32.3333333 C38.2833763,32.3333333 38.875,32.930287 38.875,33.6666667 C38.875,34.4030463 38.2833763,35 37.5535714,35 Z M35.5714286,39 C34.8416237,39 34.25,38.4030463 34.25,37.6666667 C34.25,36.930287 34.8416237,36.3333333 35.5714286,36.3333333 C36.3012334,36.3333333 36.8928571,36.930287 36.8928571,37.6666667 C36.8928571,38.4030463 36.3012334,39 35.5714286,39 Z M44.466899,47 L42.533101,47 C41.630662,47 40.8571429,47.6153846 40.8571429,48.3333333 C40.8571429,49.0512821 41.630662,49.6666667 42.533101,49.6666667 L44.466899,49.6666667 C45.369338,49.6666667 46.1428571,49.0512821 46.1428571,48.3333333 C46.1428571,47.6153846 45.369338,47 44.466899,47 Z" id="Combined-Shape" fill="#C9C9C9" fill-rule="nonzero"></path>
            </g>
        </g>
    </g>
</svg>