<?xml version="1.0" encoding="UTF-8"?>
<svg width="76px" height="78px" viewBox="0 0 76 78" version="1.1" xmlns="http://www.w3.org/2000/svg" xmlns:xlink="http://www.w3.org/1999/xlink">
    <!-- Generator: Sketch 46.2 (44496) - http://www.bohemiancoding.com/sketch -->
    <title>onboarding-step2</title>
    <desc>Created with Sketch.</desc>
    <defs></defs>
    <g id="Mobile" stroke="none" stroke-width="1" fill="none" fill-rule="evenodd">
        <g id="Onboarding-3" transform="translate(-150.000000, -149.000000)" fill-rule="nonzero" fill="#FFFFFF">
            <g id="noun_182157_cc" transform="translate(0.000000, 40.000000)">
                <g id="onboarding-step2" transform="translate(150.000000, 109.000000)">
                    <g id="Group">
                        <path d="M66.3492063,0 C71.6044866,0 76,4.43911787 76,9.76744186 L76,95.2325581 C76,100.560882 71.6044866,105 66.3492063,105 L9.65079365,105 C4.39430247,105 0,100.560882 0,95.2325581 L0,9.76744186 C0,4.43911787 4.39551335,0 9.65079365,0 L66.3492063,0 Z M71.5,93.5625 L71.5,10.4375 C71.5,7.30366316 68.7241165,4.5 65.622807,4.5 L10.377193,4.5 C7.27471075,4.5 4.5,7.30366316 4.5,10.4375 L4.5,93.5625 C4.5,96.6987058 7.27471075,99.5 10.377193,99.5 L65.622807,99.5 C68.7241165,99.5 71.5,96.6987058 71.5,93.5625 Z M21.4046801,54.3315771 L59.5477009,54.3315771 L59.5477009,54.3315771 C60.3760828,54.3315771 61.047619,55.0031134 61.047619,55.8314953 L61.047619,55.8314953 C61.047619,56.6598772 60.3760828,57.3314134 59.5477009,57.3314134 L21.4046801,57.3314134 C20.5762981,57.3314134 19.9047619,56.6598772 19.9047619,55.8314953 C19.9047619,55.0031134 20.5762981,54.3315771 21.4046801,54.3315771 Z M15.8313953,54.0000999 L16.1686047,54.0000999 C17.1800564,54.0000999 18,54.8200436 18,55.8314953 L18,55.8314953 C18,56.842947 17.1800564,57.6628906 16.1686047,57.6628906 L15.8313953,57.6628906 L15.8313953,57.6628906 C14.8199436,57.6628906 14,56.842947 14,55.8314953 C14,54.8200436 14.8199436,54.0000999 15.8313953,54.0000999 Z M21.4046801,62.3315771 L50.4048438,62.3315771 C51.2332257,62.3315771 51.9047619,63.0031134 51.9047619,63.8314953 C51.9047619,64.6598772 51.2332257,65.3314134 50.4048438,65.3314134 L21.4046801,65.3314134 C20.5762981,65.3314134 19.9047619,64.6598772 19.9047619,63.8314953 C19.9047619,63.0031134 20.5762981,62.3315771 21.4046801,62.3315771 Z M15.8313953,62.0000999 L16.1686047,62.0000999 C17.1800564,62.0000999 18,62.8200436 18,63.8314953 L18,63.8314953 C18,64.842947 17.1800564,65.6628906 16.1686047,65.6628906 L15.8313953,65.6628906 C14.8199436,65.6628906 14,64.842947 14,63.8314953 C14,62.8200436 14.8199436,62.0000999 15.8313953,62.0000999 Z M21.4046801,70.3315771 L59.5477009,70.3315771 L59.5477009,70.3315771 C60.3760828,70.3315771 61.047619,71.0031134 61.047619,71.8314953 C61.047619,72.6598772 60.3760828,73.3314134 59.5477009,73.3314134 L21.4046801,73.3314134 C20.5762981,73.3314134 19.9047619,72.6598772 19.9047619,71.8314953 C19.9047619,71.0031134 20.5762981,70.3315771 21.4046801,70.3315771 L21.4046801,70.3315771 Z M15.8313953,70.0000999 L16.1686047,70.0000999 C17.1800564,70.0000999 18,70.8200436 18,71.8314953 L18,71.8314953 C18,72.842947 17.1800564,73.6628906 16.1686047,73.6628906 L15.8313953,73.6628906 C14.8199436,73.6628906 14,72.842947 14,71.8314953 L14,71.8314953 L14,71.8314953 C14,70.8200436 14.8199436,70.0000999 15.8313953,70.0000999 Z M16.3075858,86.6860465 L23.501938,86.6860465 C24.5133897,86.6860465 25.3333333,87.5059901 25.3333333,88.5174419 C25.3333333,89.5288936 24.5133897,90.3488372 23.501938,90.3488372 L16.3075858,90.3488372 C15.2961341,90.3488372 14.4761905,89.5288936 14.4761905,88.5174419 C14.4761905,87.5059901 15.2961341,86.6860465 16.3075858,86.6860465 Z M21.5571812,24.1576506 L21.5571812,24.1576506 C21.5571812,23.127442 21.8287002,22.1154293 22.3443818,21.2235761 L22.3443818,21.2235761 L25.2965568,16.1178937 C26.0298526,14.8496845 27.383672,14.0686406 28.8486216,14.0686406 L47.1513784,14.0686406 C48.616328,14.0686406 49.9701474,14.8496845 50.7034432,16.1178937 L50.7034432,16.1178937 L53.6556182,21.2235761 C54.1712998,22.1154293 54.4428188,23.127442 54.4428188,24.1576506 L54.4428188,24.4363896 C54.4428188,26.2190882 53.4563148,27.7688086 52.0449078,28.4747529 L52.0449078,43.3205284 C52.044851,43.933998 51.584778,44.4312981 51.0172316,44.4313594 L36.0516972,44.4313594 L29.0185384,44.4313594 L24.9827684,44.4313594 C24.415222,44.4312981 23.955149,43.933998 23.9550922,43.3205284 L23.9550922,28.4747529 C22.5436852,27.7688086 21.5571812,26.2190882 21.5571812,24.4363896 L21.5571812,24.1576506 Z M28.5787669,16.2903027 C27.9615868,16.2903027 27.3895835,16.6138604 27.0716195,17.1428314 L24.4053858,21.5784289 C23.8866139,22.4414677 23.6125335,23.4294337 23.6125335,24.4363896 C23.6125335,25.6864077 24.5114453,26.6580516 25.6678859,26.6580516 C26.8243264,26.6580516 27.7232382,25.6864077 27.7232382,24.4363896 L29.7785906,24.4363896 C29.7785906,25.6864077 30.6775024,26.6580516 31.8339429,26.6580516 C32.9903835,26.6580516 33.8892953,25.6864077 33.8892953,24.4363896 L35.9446476,24.4363896 C35.9446476,25.6864077 36.8435594,26.6580516 38,26.6580516 C39.1564406,26.6580516 40.0553524,25.6864077 40.0553524,24.4363896 L42.1107047,24.4363896 C42.1107047,25.6864077 43.0096165,26.6580516 44.1660571,26.6580516 C45.3224976,26.6580516 46.2214094,25.6864077 46.2214094,24.4363896 L48.2767618,24.4363896 C48.2767618,25.6864077 49.1756736,26.6580516 50.3321141,26.6580516 C51.4885547,26.6580516 52.3874665,25.6864077 52.3874665,24.4363896 L52.3874665,24.4363896 C52.3874665,23.4294337 52.1133861,22.4414677 51.5946142,21.5784289 L48.9283805,17.1428314 C48.6104165,16.6138604 48.0384132,16.2903027 47.4212331,16.2903027 L28.5787669,16.2903027 Z M28.7509144,27.2828941 C28.0654715,28.148898 27.111305,28.7624581 26.0104446,28.8681722 L26.0104446,42.2096973 L28.604411,42.2096973 L28.604411,32.0469293 C28.6044678,31.4334596 29.0645408,30.9361596 29.6320872,30.9360982 L34.8674195,30.9360982 C35.4349659,30.9361596 35.8950389,31.4334596 35.8950957,32.0469293 L35.8950957,42.2096973 L49.9895554,42.2096973 L49.9895554,28.8681722 C48.888695,28.7624581 47.9345285,28.148898 47.2490856,27.2828941 C46.4933942,28.2376534 45.4115732,28.8797248 44.1660571,28.8797248 C42.9205409,28.8797248 41.8387199,28.2376534 41.0830285,27.2828941 C40.3273371,28.2376534 39.2455161,28.8797248 38,28.8797248 C36.7544839,28.8797248 35.6726629,28.2376534 34.9169715,27.2828941 C34.1612801,28.2376534 33.0794591,28.8797248 31.8339429,28.8797248 C30.5884268,28.8797248 29.5066058,28.2376534 28.7509144,27.2828941 Z M39.1600777,31.9134984 C39.1601247,31.4046037 39.5417715,30.9920758 40.0125712,30.9920249 L46.2641906,30.9920249 C46.7349903,30.9920758 47.116637,31.4046037 47.1166841,31.9134984 L47.1166841,36.2137077 C47.116637,36.7226024 46.7349903,37.1351303 46.2641906,37.1351811 L40.0125712,37.1351811 C39.5417715,37.1351303 39.1601247,36.7226024 39.1600777,36.2137077 L39.1600777,31.9134984 Z" id="Combined-Shape"></path>
                    </g>
                </g>
            </g>
        </g>
    </g>
</svg>