<?xml version="1.0" encoding="UTF-8"?>
<svg width="85px" height="77px" viewBox="0 0 85 77" version="1.1" xmlns="http://www.w3.org/2000/svg" xmlns:xlink="http://www.w3.org/1999/xlink">
    <!-- Generator: Sketch 46.2 (44496) - http://www.bohemiancoding.com/sketch -->
    <title>onboarding-step1</title>
    <desc>Created with Sketch.</desc>
    <defs></defs>
    <g id="Mobile" stroke="none" stroke-width="1" fill="none" fill-rule="evenodd">
        <g id="Onboarding-2" transform="translate(-153.000000, -153.000000)" fill-rule="nonzero" fill="#FFFFFF">
            <path d="M211.207366,216.091529 L219.357274,225.927624 C220.059853,226.770718 219.919337,228.175875 219.076243,228.878453 C218.654696,229.159484 218.233149,229.3 217.671087,229.3 C217.109024,229.3 216.406446,229.018969 215.984899,228.597422 L207.553959,218.480295 C202.073849,221.993186 195.610129,223.960405 188.584346,223.960405 C181.558564,223.960405 175.094843,221.993186 169.614733,218.480295 L161.183794,228.597422 C160.762247,229.159484 160.200184,229.3 159.497606,229.3 C159.076059,229.3 158.513996,229.159484 158.092449,228.878453 C157.249355,228.175875 157.10884,226.770718 157.811418,225.927624 L165.961326,216.091529 C158.373481,209.487293 153.314917,199.651197 153.314917,188.55046 C153.314917,169.018785 169.193186,153 188.865378,153 C204.181584,153 217.109024,162.69558 222.167587,176.185083 C220.902947,177.028177 219.778821,178.011786 218.654696,178.995396 C214.579742,166.348987 202.776427,157.21547 188.865378,157.21547 C171.581952,157.21547 157.530387,171.267035 157.530387,188.55046 C157.530387,205.833886 171.581952,219.885451 188.865378,219.885451 C202.776427,219.885451 214.579742,210.751934 218.654696,198.105525 C219.778821,199.089134 220.902947,200.072744 222.167587,200.915838 C219.919337,206.817495 216.125414,212.016575 211.207366,216.091529 Z M207.272928,183.632413 L211.628913,183.632413 C209.380663,173.093738 199.966114,165.224862 188.865378,165.224862 C176.078453,165.224862 165.539779,175.62302 165.539779,188.55046 C165.539779,201.337385 175.937937,211.876059 188.865378,211.876059 C199.966114,211.876059 209.380663,204.007182 211.628913,193.468508 L207.272928,193.468508 C205.165193,201.618416 197.717864,207.660589 188.865378,207.660589 C178.326703,207.660589 169.755249,199.089134 169.755249,188.55046 C169.755249,178.011786 178.326703,169.440331 188.865378,169.440331 C197.577348,169.440331 205.024678,175.482505 207.272928,183.632413 Z M188.865378,181.665193 C190.692081,181.665193 192.518785,182.367772 193.783425,183.632413 L198.841989,183.632413 C197.015285,179.979006 193.221363,177.449724 188.865378,177.449724 C182.682689,177.449724 177.764641,182.508287 177.764641,188.55046 C177.764641,194.733149 182.823204,199.651197 188.865378,199.651197 C193.221363,199.651197 197.015285,197.121915 198.841989,193.468508 L193.783425,193.468508 C192.518785,194.733149 190.832597,195.435727 188.865378,195.435727 C185.071455,195.435727 181.98011,192.344383 181.98011,188.55046 C181.839595,184.756538 184.930939,181.665193 188.865378,181.665193 Z M234.954512,188.55046 L237.624309,194.030571 L229.895948,200.915838 L215.563352,190.658195 L188.443831,190.658195 C187.319705,190.658195 186.336096,189.674586 186.336096,188.55046 C186.336096,187.426335 187.319705,186.442726 188.443831,186.442726 L215.563352,186.442726 L229.895948,176.185083 L237.624309,183.07035 L234.954512,188.55046 Z" id="onboarding-step1"></path>
        </g>
    </g>
</svg>