<?xml version="1.0" encoding="UTF-8"?>
<svg width="52px" height="55px" viewBox="0 0 52 55" version="1.1" xmlns="http://www.w3.org/2000/svg" xmlns:xlink="http://www.w3.org/1999/xlink">
    <!-- Generator: Sketch 46.2 (44496) - http://www.bohemiancoding.com/sketch -->
    <title>onboarding-step1-expense</title>
    <desc>Created with Sketch.</desc>
    <defs></defs>
    <g id="Mobile" stroke="none" stroke-width="1" fill="none" fill-rule="evenodd">
        <g id="Onboarding-2" transform="translate(-102.000000, -363.000000)" fill-rule="nonzero" fill="#FF6213">
            <path d="M116.432592,373.747143 C116.534525,374.878218 116.791224,375.964668 117.181353,376.985157 L113.138834,376.985157 C112.135147,376.985157 111.199358,377.492085 110.651095,378.332796 L110.651095,378.332796 L106.475231,384.736096 C105.675699,385.962105 105.25,387.394186 105.25,388.857862 L105.25,388.857862 C105.25,390.67973 106.671393,392.095876 108.5,392.095876 C110.328607,392.095876 111.75,390.67973 111.75,388.857862 L115,388.857862 C115,390.67973 116.421393,392.095876 118.25,392.095876 C120.078607,392.095876 121.5,390.67973 121.5,388.857862 L124.75,388.857862 C124.75,390.67973 126.171393,392.095876 128,392.095876 C129.828607,392.095876 131.25,390.67973 131.25,388.857862 L134.5,388.857862 C134.5,390.67973 135.921393,392.095876 137.75,392.095876 C139.578607,392.095876 141,390.67973 141,388.857862 L144.25,388.857862 C144.25,390.67973 145.671393,392.095876 147.5,392.095876 C149.328607,392.095876 150.75,390.67973 150.75,388.857862 C150.75,387.394186 150.324301,385.962105 149.524769,384.736096 L149.524769,384.736096 L145.348905,378.332796 C144.800642,377.492085 143.864853,376.985157 142.861166,376.985157 L142.861166,376.985157 L139.92503,376.985157 C140.315159,375.964668 140.571858,374.878218 140.673791,373.747143 L142.38013,373.747143 C144.765429,373.747143 146.98308,374.973863 148.250646,376.994489 L148.250646,376.994489 L152.566085,383.873726 C153.503026,385.367303 154,387.094731 154,388.857862 C154,391.456098 152.440103,393.714774 150.208333,394.743669 L150.208333,416.380993 C150.208244,417.275109 149.480759,417.999911 148.583333,418 L124.919271,418 L113.798177,418 L107.416667,418 C106.519241,417.999911 105.791756,417.275109 105.791667,416.380993 L105.791667,394.743669 C103.559897,393.714774 102,391.456098 102,388.857862 L102,388.857862 C102,387.094731 102.496974,385.367303 103.433915,383.873726 L103.433915,383.873726 L107.749354,376.994489 C109.01692,374.973863 111.234571,373.747143 113.61987,373.747143 L113.61987,373.747143 L116.432592,373.747143 Z M113.375,393.006567 C112.291152,394.268745 110.782388,395.162992 109.041667,395.317068 L109.041667,414.761986 L113.143343,414.761986 L113.143343,399.950022 C113.143433,399.055906 113.870918,398.331104 114.768343,398.331015 L123.046647,398.331015 C123.944072,398.331104 124.671557,399.055906 124.671647,399.950022 L124.671647,414.761986 L146.958333,414.761986 L146.958333,395.317068 C145.217612,395.162992 143.708848,394.268745 142.625,393.006567 C141.430072,394.398103 139.719457,395.333905 137.75,395.333905 C135.780543,395.333905 134.069927,394.398103 132.875,393.006567 C131.680072,394.398103 129.969457,395.333905 128,395.333905 C126.030543,395.333905 124.319927,394.398103 123.125,393.006567 C121.930072,394.398103 120.219457,395.333905 118.25,395.333905 C116.280543,395.333905 114.569927,394.398103 113.375,393.006567 Z M129.834358,399.75555 C129.834433,399.013849 130.437907,398.412601 131.182353,398.412527 L141.067647,398.412527 C141.812093,398.412601 142.415567,399.013849 142.415642,399.75555 L142.415642,406.022991 C142.415567,406.764691 141.812093,407.36594 141.067647,407.366014 L131.182353,407.366014 C130.437907,407.36594 129.834433,406.764691 129.834358,406.022991 L129.834358,399.75555 Z M138.036497,372.482766 C138.036497,377.718044 133.788771,381.965533 128.553203,381.965533 C123.317634,381.965533 119.069909,377.718044 119.069909,372.482766 C119.069909,367.247489 123.317634,363 128.553203,363 C133.788771,363 138.036497,367.247489 138.036497,372.482766 Z M134.047275,372.086817 C134.125807,371.896668 134.078688,371.690673 133.937329,371.532216 L128.911233,366.461576 C128.801287,366.366502 128.675634,366.318964 128.549982,366.318964 C128.42433,366.318964 128.298677,366.366502 128.188731,366.461576 L123.178342,371.51637 C123.084103,371.62729 123.021277,371.754056 123.021277,371.896668 C123.021277,372.181892 123.241168,372.403732 123.523886,372.403732 L126.539544,372.403732 L126.539544,377.981436 C126.539544,378.266659 126.759435,378.4885 127.042153,378.4885 L130.057811,378.4885 C130.340529,378.4885 130.56042,378.266659 130.56042,377.981436 L130.56042,372.403732 L133.576078,372.403732 C133.780263,372.403732 133.968742,372.276966 134.047275,372.086817 Z" id="onboarding-step1-expense"></path>
        </g>
    </g>
</svg>