<?xml version="1.0" encoding="UTF-8"?>
<svg width="75px" height="72px" viewBox="0 0 75 72" version="1.1" xmlns="http://www.w3.org/2000/svg" xmlns:xlink="http://www.w3.org/1999/xlink">
    <!-- Generator: Sketch 46.2 (44496) - http://www.bohemiancoding.com/sketch -->
    <title>onboarding-step3</title>
    <desc>Created with Sketch.</desc>
    <defs></defs>
    <g id="Mobile" stroke="none" stroke-width="1" fill="none" fill-rule="evenodd">
        <g id="Onboarding-4" transform="translate(-149.000000, -155.000000)" fill-rule="nonzero" fill="#FFFFFF">
            <g id="noun_182157_cc" transform="translate(0.000000, 40.000000)">
                <g id="onboarding-step3" transform="translate(138.000000, 115.000000)">
                    <path d="M94.4181225,73.3142029 L84.1533719,73.3142029 L84.1533719,45.3818865 C84.1533719,43.6515515 82.8555545,42.353734 81.1252195,42.353734 C79.3948845,42.353734 78.0970671,43.6515515 78.0970671,45.3818865 L78.0970671,73.3142029 L68.0407622,73.3142029 L68.0407622,38.6682991 C68.0407622,36.9379641 66.7429447,35.6401466 65.0126098,35.6401466 C63.2822748,35.6401466 61.9844573,36.9379641 61.9844573,38.6682991 L61.9844573,73.3142029 L51.9281524,73.3142029 L51.9281524,48.0673214 C51.9281524,46.3369865 50.630335,45.039169 48.9,45.039169 C47.169665,45.039169 45.8718476,46.3369865 45.8718476,48.0673214 L45.8718476,73.3142029 L35.8155427,73.3142029 L35.8155427,34.6401466 C35.8155427,32.9098117 34.5177252,31.6119942 32.7873902,31.6119942 C31.0570553,31.6119942 29.7592378,32.9098117 29.7592378,34.6401466 L29.7592378,73.3142029 L19.7029329,73.3142029 L19.7029329,49.4100389 C19.7029329,47.679704 18.4051155,46.3818865 16.6747805,46.3818865 C14.9444455,46.3818865 13.6466281,47.679704 13.6466281,49.4100389 L13.6466281,73.3142029 L3.38187745,73.3142029 C1.65154249,73.3142029 0.353725017,74.6120204 0.353725017,76.3423554 C0.353725017,78.0726903 1.65154249,79.3705078 3.38187745,79.3705078 L94.4181225,79.3705078 C96.1484575,79.3705078 97.446275,78.0726903 97.446275,76.3423554 C97.446275,74.6120204 96.1484575,73.3142029 94.4181225,73.3142029 Z M14.1409487,34.0507706 C14.9282557,34.0507706 15.6497117,33.7673414 16.2654303,33.2578045 L33.2743123,16.8065908 L33.9604496,17.3468564 L51.0275585,30.7857478 C52.1299356,31.6876928 53.7253197,31.6876928 54.7348915,30.7810755 L79.3574967,10.9381525 L79.1857995,13.2388956 L78.5154881,22.2194048 C78.4126248,23.9680812 79.6214913,25.3582777 81.2768227,25.4573787 L81.5453662,25.4573787 C83.1745064,25.4573787 84.4746835,24.2479116 84.5765098,22.6204822 L85.9179617,5.31799225 C86.020825,3.56931588 84.8119585,2.17911938 83.0793397,2.07702719 L65.7768497,0.735575235 C64.0281733,0.632711919 62.6379768,1.84157844 62.5371501,3.55563183 C62.4342868,5.3043082 63.6431533,6.69450469 65.3870245,6.7975331 L73.9013876,7.55436537 L52.8141289,24.5158561 L52.1880084,24.0169163 L35.0244284,10.3391385 C33.8129347,9.43051821 32.0867324,9.52299333 31.0795146,10.5298818 L12.0283488,28.7757465 C10.8177353,29.9863599 10.7876327,31.7925193 11.9462269,33.0572617 C12.5136347,33.7192375 13.2787111,34.0507706 14.1409487,34.0507706 Z" id="Combined-Shape"></path>
                </g>
            </g>
        </g>
    </g>
</svg>