<?xml version="1.0" encoding="UTF-8"?>
<svg width="113px" height="95px" viewBox="0 0 113 95" version="1.1" xmlns="http://www.w3.org/2000/svg" xmlns:xlink="http://www.w3.org/1999/xlink">
    <!-- Generator: Sketch 46.2 (44496) - http://www.bohemiancoding.com/sketch -->
    <title>onboarding-landing-icon</title>
    <desc>Created with Sketch.</desc>
    <defs></defs>
    <g id="Mobile" stroke="none" stroke-width="1" fill="none" fill-rule="evenodd">
        <g id="Onboarding-1" transform="translate(-143.000000, -90.000000)" fill="#358DCF">
            <g id="onboarding-landing-icon" transform="translate(143.000000, 90.000000)">
                <g id="Group-7" transform="translate(0.000000, 25.000000)" fill-rule="nonzero">
                    <path d="M40.0286525,-5.72653036e-13 C39.5572807,1.65309431 39.2269988,3.36494715 39.0515258,5.12195059 L16.3939512,5.12195059 L16.3939512,5.12195059 C15.4770927,5.12195059 14.6228859,5.58723421 14.1255972,6.35751558 L14.1255972,6.35751558 L6.52810544,18.1257412 C5.5888675,19.5805851 5.08928571,21.2755044 5.08928571,23.007191 L5.08928571,23.007191 L5.08928571,23.902419 C5.08928571,26.7842845 7.3150933,29.0243696 10.1785714,29.0243696 C13.0420496,29.0243696 15.2678571,26.7842845 15.2678571,23.902419 L20.3571429,23.902419 C20.3571429,26.7842845 22.5829504,29.0243696 25.4464286,29.0243696 C28.3099067,29.0243696 30.5357143,26.7842845 30.5357143,23.902419 L35.625,23.902419 C35.625,26.7842845 37.8508076,29.0243696 40.7142857,29.0243696 C42.707176,29.0243696 44.3911966,27.9393351 45.2309742,26.3080667 C47.6983213,29.4368801 50.7861331,32.0610566 54.3108043,33.9984768 C51.9323891,33.5725514 49.8723995,32.2578922 48.3482143,30.4649182 C46.4770366,32.6660765 43.798325,34.1463458 40.7142857,34.1463458 C37.6302464,34.1463458 34.9515348,32.6660765 33.0803571,30.4649182 C31.2091795,32.6660765 28.5304679,34.1463458 25.4464286,34.1463458 C22.3623893,34.1463458 19.6836777,32.6660765 17.8125,30.4649182 C16.1152656,32.4614546 13.7526411,33.8759922 11.0267857,34.1197117 L11.0267857,64.8780494 L17.449741,64.8780494 L17.449741,41.4482055 C17.4498815,40.0338764 18.5890746,38.8873716 19.9943838,38.8872302 L32.9576609,38.8872302 C34.3629701,38.8873716 35.5021632,40.0338764 35.5023037,41.4482055 L35.5023037,64.8780494 L70.4017857,64.8780494 L70.4017857,37.6483952 C72.1420238,37.5549584 73.8426314,37.3137074 75.4910714,36.9370776 L75.4910714,67.4390247 C75.4909309,68.8533537 74.3517378,69.9998586 72.9464286,70 L35.890067,70 L18.4751674,70 L8.48214286,70 C7.07683362,69.9998586 5.93764051,68.8533537 5.9375,67.4390247 L5.9375,33.2126996 C2.44269598,31.5851742 0,28.0123576 0,23.902419 L0,22.2013316 C-2.05494985e-16,20.5233377 0.469104663,18.8787591 1.35435018,17.4532753 L1.35435018,17.4532753 L10.3447185,2.97636046 C11.4940708,1.12559373 13.5180617,1.00923005e-13 15.6966732,9.85878046e-14 L15.6966732,9.70497277e-14 L40.0286525,1.01253038e-13 Z M43.5867697,41.140586 C43.5868862,39.9673503 44.531887,39.0162841 45.6976405,39.0161668 L61.1773595,39.0161668 C62.343113,39.0162841 63.2881138,39.9673503 63.2882303,41.140586 L63.2882303,51.0545418 C63.2881138,52.2277775 62.343113,53.1788436 61.1773595,53.1789609 L45.6976405,53.1789609 C44.531887,53.1788436 43.5868862,52.2277775 43.5867697,51.0545418 L43.5867697,41.140586 Z" id="Combined-Shape"></path>
                </g>
                <path d="M68.439869,36.8510739 L75.839869,36.8510739 L75.839869,35.0510739 L73.3732023,35.0510739 L73.3732023,26.6510739 L71.1763273,26.6510739 L68.324244,29.2198239 L69.8080981,30.7198239 C70.2705981,30.3260739 70.5596606,30.1198239 70.867994,29.6510739 L70.9065356,29.6510739 L70.9065356,35.0510739 L68.439869,35.0510739 L68.439869,36.8510739 Z M78.3065356,32.0510739 C78.3065356,35.4635739 76.186744,39.8510739 72.139869,39.8510739 C68.092994,39.8510739 65.9732023,35.4635739 65.9732023,32.0510739 C65.9732023,28.6385739 68.092994,24.2510739 72.139869,24.2510739 C76.186744,24.2510739 78.3065356,28.6385739 78.3065356,32.0510739 Z M88.1732023,36.8510739 L88.1732023,27.2510739 C85.4560148,27.2510739 83.239869,25.0948239 83.239869,22.4510739 L61.039869,22.4510739 C61.039869,25.0948239 58.8237231,27.2510739 56.1065356,27.2510739 L56.1065356,36.8510739 C58.8237231,36.8510739 61.039869,39.0073239 61.039869,41.6510739 L83.239869,41.6510739 C83.239869,39.0073239 85.4560148,36.8510739 88.1732023,36.8510739 Z M90.639869,21.2510739 L90.639869,42.8510739 C90.639869,43.5073239 90.0810148,44.0510739 89.4065356,44.0510739 L54.8732023,44.0510739 C54.1987231,44.0510739 53.639869,43.5073239 53.639869,42.8510739 L53.639869,21.2510739 C53.639869,20.5948239 54.1987231,20.0510739 54.8732023,20.0510739 L89.4065356,20.0510739 C90.0810148,20.0510739 90.639869,20.5948239 90.639869,21.2510739 Z" id="money---FontAwesome" transform="translate(72.139869, 32.051074) rotate(-57.000000) translate(-72.139869, -32.051074) "></path>
                <path d="M68.1493922,12.8331038 L64.2336267,10.9232574 C63.6273874,10.6275747 62.8771406,10.8909207 62.5779098,11.5044349 L47.2572913,42.9163579 C46.9580605,43.529872 47.212439,44.2832065 47.8186783,44.5788892 L67.6376661,54.2452554 L50.220371,42.9343317 C49.5976365,42.5299232 49.4207588,41.6726703 49.8300201,41.0424631 L54.1911879,34.3268536 L62.059189,18.1950607 C62.7951099,18.5539933 63.579411,18.7099506 64.3490974,18.6850447 L68.1493922,12.8331038 Z" id="Combined-Shape"></path>
                <path d="M94.9938076,32.5769231 C94.9938076,18.0122568 83.1415893,6.16003855 68.5769231,6.16003855 C54.0122568,6.16003855 42.1600386,18.0122568 42.1600386,32.5769231 C42.1600386,47.1415893 54.0122568,58.9938076 68.5769231,58.9938076 C83.1415893,58.9938076 94.9938076,47.1415893 94.9938076,32.5769231 Z M113,71.0769231 C113,74.3161058 110.316106,77 107.076923,77 C105.503606,77 103.976562,76.3521635 102.91226,75.2415865 L87.0402644,59.4158654 C81.6262019,63.1640625 75.1478365,65.1538462 68.5769231,65.1538462 C50.5763221,65.1538462 36,50.577524 36,32.5769231 C36,14.5763221 50.5763221,0 68.5769231,0 C86.577524,0 101.153846,14.5763221 101.153846,32.5769231 C101.153846,39.1478365 99.1640625,45.6262019 95.4158654,51.0402644 L111.287861,66.9122596 C112.352163,67.9765625 113,69.5036058 113,71.0769231 Z" id="Search---FontAwesome"></path>
            </g>
        </g>
    </g>
</svg>