<?xml version="1.0" encoding="UTF-8"?>
<svg width="52px" height="55px" viewBox="0 0 52 55" version="1.1" xmlns="http://www.w3.org/2000/svg" xmlns:xlink="http://www.w3.org/1999/xlink">
    <!-- Generator: Sketch 46.2 (44496) - http://www.bohemiancoding.com/sketch -->
    <title>onboarding-step2-profit</title>
    <desc>Created with Sketch.</desc>
    <defs></defs>
    <g id="Mobile" stroke="none" stroke-width="1" fill="none" fill-rule="evenodd">
        <g id="Onboarding-2" transform="translate(-222.000000, -363.000000)" fill-rule="nonzero" fill="#5FBE5F">
            <path d="M236.432592,373.747143 C236.534525,374.878218 236.791224,375.964668 237.181353,376.985157 L233.138834,376.985157 C232.135147,376.985157 231.199358,377.492085 230.651095,378.332796 L230.651095,378.332796 L226.475231,384.736096 C225.675699,385.962105 225.25,387.394186 225.25,388.857862 L225.25,388.857862 C225.25,390.67973 226.671393,392.095876 228.5,392.095876 C230.328607,392.095876 231.75,390.67973 231.75,388.857862 L235,388.857862 C235,390.67973 236.421393,392.095876 238.25,392.095876 C240.078607,392.095876 241.5,390.67973 241.5,388.857862 L244.75,388.857862 C244.75,390.67973 246.171393,392.095876 248,392.095876 C249.828607,392.095876 251.25,390.67973 251.25,388.857862 L254.5,388.857862 C254.5,390.67973 255.921393,392.095876 257.75,392.095876 C259.578607,392.095876 261,390.67973 261,388.857862 L264.25,388.857862 C264.25,390.67973 265.671393,392.095876 267.5,392.095876 C269.328607,392.095876 270.75,390.67973 270.75,388.857862 C270.75,387.394186 270.324301,385.962105 269.524769,384.736096 L269.524769,384.736096 L265.348905,378.332796 C264.800642,377.492085 263.864853,376.985157 262.861166,376.985157 L262.861166,376.985157 L259.92503,376.985157 C260.315159,375.964668 260.571858,374.878218 260.673791,373.747143 L262.38013,373.747143 C264.765429,373.747143 266.98308,374.973863 268.250646,376.994489 L268.250646,376.994489 L272.566085,383.873726 C273.503026,385.367303 274,387.094731 274,388.857862 C274,391.456098 272.440103,393.714774 270.208333,394.743669 L270.208333,416.380993 C270.208244,417.275109 269.480759,417.999911 268.583333,418 L244.919271,418 L233.798177,418 L227.416667,418 C226.519241,417.999911 225.791756,417.275109 225.791667,416.380993 L225.791667,394.743669 C223.559897,393.714774 222,391.456098 222,388.857862 L222,388.857862 C222,387.094731 222.496974,385.367303 223.433915,383.873726 L223.433915,383.873726 L227.749354,376.994489 C229.01692,374.973863 231.234571,373.747143 233.61987,373.747143 L233.61987,373.747143 L236.432592,373.747143 Z M233.375,393.006567 C232.291152,394.268745 230.782388,395.162992 229.041667,395.317068 L229.041667,414.761986 L233.143343,414.761986 L233.143343,399.950022 C233.143433,399.055906 233.870918,398.331104 234.768343,398.331015 L243.046647,398.331015 C243.944072,398.331104 244.671557,399.055906 244.671647,399.950022 L244.671647,414.761986 L266.958333,414.761986 L266.958333,395.317068 C265.217612,395.162992 263.708848,394.268745 262.625,393.006567 C261.430072,394.398103 259.719457,395.333905 257.75,395.333905 C255.780543,395.333905 254.069927,394.398103 252.875,393.006567 C251.680072,394.398103 249.969457,395.333905 248,395.333905 C246.030543,395.333905 244.319927,394.398103 243.125,393.006567 C241.930072,394.398103 240.219457,395.333905 238.25,395.333905 C236.280543,395.333905 234.569927,394.398103 233.375,393.006567 Z M249.834358,399.75555 C249.834433,399.013849 250.437907,398.412601 251.182353,398.412527 L261.067647,398.412527 C261.812093,398.412601 262.415567,399.013849 262.415642,399.75555 L262.415642,406.022991 C262.415567,406.764691 261.812093,407.36594 261.067647,407.366014 L251.182353,407.366014 C250.437907,407.36594 249.834433,406.764691 249.834358,406.022991 L249.834358,399.75555 Z M258.036497,372.482766 C258.036497,377.718044 253.788771,381.965533 248.553203,381.965533 C243.317634,381.965533 239.069909,377.718044 239.069909,372.482766 C239.069909,367.247489 243.317634,363 248.553203,363 C253.788771,363 258.036497,367.247489 258.036497,372.482766 Z M254.047275,372.720647 C253.968742,372.530498 253.780263,372.403732 253.576078,372.403732 L250.56042,372.403732 L250.56042,366.826028 C250.56042,366.540805 250.340529,366.318964 250.057811,366.318964 L247.042153,366.318964 C246.759435,366.318964 246.539544,366.540805 246.539544,366.826028 L246.539544,372.403732 L243.523886,372.403732 C243.241168,372.403732 243.021277,372.625573 243.021277,372.910796 C243.021277,373.053408 243.084103,373.180174 243.178342,373.291094 L248.188731,378.345888 C248.298677,378.440963 248.42433,378.4885 248.549982,378.4885 C248.675634,378.4885 248.801287,378.440963 248.911233,378.345888 L253.937329,373.275248 C254.078688,373.116791 254.125807,372.910796 254.047275,372.720647 Z" id="onboarding-step2-profit"></path>
        </g>
    </g>
</svg>