<svg xmlns="http://www.w3.org/2000/svg" width="65" height="51" viewBox="0 0 65 51">
  <defs>
    <filter id="revenue-a" width="103.7%" height="117.1%" x="-1.8%" y="-8.6%" filterUnits="objectBoundingBox">
      <feOffset in="SourceAlpha" result="shadowOffsetOuter1"/>
      <feGaussianBlur in="shadowOffsetOuter1" result="shadowBlurOuter1" stdDeviation="2"/>
      <feColorMatrix in="shadowBlurOuter1" result="shadowMatrixOuter1" values="0 0 0 0 0   0 0 0 0 0   0 0 0 0 0  0 0 0 0.5 0"/>
      <feMerge>
        <feMergeNode in="shadowMatrixOuter1"/>
        <feMergeNode in="SourceGraphic"/>
      </feMerge>
    </filter>
  </defs>
  <g fill="none" fill-rule="evenodd" filter="url(#revenue-a)" transform="translate(3 4)">
    <text fill="#484848" font-family="PNCSans-Medium, PNC Sans" font-size="13" font-weight="400">
      <tspan x=".738" y="43">REVENUE</tspan>
    </text>
    <g transform="translate(16)">
      <path fill="#484848" fill-rule="nonzero" d="M23.4314642,14.765625 L22.2102804,14.765625 L20.8364486,5.98197115 C20.7601246,5.52764423 20.3785047,5.14903846 19.9205607,5.14903846 L19.0809969,5.14903846 L19.0809969,0.984375 C19.0809969,0.454326923 18.623053,0 18.088785,0 L16.6386293,0 C16.4859813,0 16.2570093,0.0757211538 16.1043614,0.151442308 L15.4174455,0.605769231 L13.9672897,0.0757211538 C13.6619938,0 13.3566978,0 13.1277259,0.151442308 C12.8987539,0.302884615 12.7461059,0.605769231 12.7461059,0.908653846 L12.7461059,5.07331731 L4.50311526,5.07331731 C4.04517134,5.07331731 3.6635514,5.37620192 3.58722741,5.90625 L2.21339564,14.6899038 L0.992211838,14.6899038 C0.457943925,14.6899038 0,15.1442308 0,15.6742788 L0,22.640625 C0,23.1706731 0.457943925,23.625 0.992211838,23.625 L23.5077882,23.625 C24.0420561,23.625 24.5,23.1706731 24.5,22.640625 L24.5,15.6742788 C24.423676,15.2199519 23.9657321,14.765625 23.4314642,14.765625 Z M14.5778816,2.42307692 L15.1884735,2.65024038 C15.4937695,2.72596154 15.7990654,2.72596154 16.0280374,2.57451923 L16.8676012,2.04447115 L17.0965732,2.04447115 L17.0965732,5.30048077 L14.5778816,5.30048077 L14.5778816,2.42307692 Z M5.34267913,7.11778846 L13.6619938,7.11778846 L18.088785,7.11778846 L19.0809969,7.11778846 L20.3021807,14.765625 L4.12149533,14.765625 L5.34267913,7.11778846 Z M22.5155763,21.8076923 L1.90809969,21.8076923 L1.90809969,16.734375 L3.0529595,16.734375 L21.3707165,16.734375 L22.5155763,16.734375 L22.5155763,21.8076923 Z M14.875,13.125 C14.3917508,13.125 14,12.7332492 14,12.25 C14,11.7667508 14.3917508,11.375 14.875,11.375 C15.3582492,11.375 15.75,11.7667508 15.75,12.25 C15.75,12.7332492 15.3582492,13.125 14.875,13.125 Z M17.5,13.125 C17.0167508,13.125 16.625,12.7332492 16.625,12.25 C16.625,11.7667508 17.0167508,11.375 17.5,11.375 C17.9832492,11.375 18.375,11.7667508 18.375,12.25 C18.375,12.7332492 17.9832492,13.125 17.5,13.125 Z M12.25,13.125 C11.7667508,13.125 11.375,12.7332492 11.375,12.25 C11.375,11.7667508 11.7667508,11.375 12.25,11.375 C12.7332492,11.375 13.125,11.7667508 13.125,12.25 C13.125,12.7332492 12.7332492,13.125 12.25,13.125 Z M9.625,13.125 C9.14175084,13.125 8.75,12.7332492 8.75,12.25 C8.75,11.7667508 9.14175084,11.375 9.625,11.375 C10.1082492,11.375 10.5,11.7667508 10.5,12.25 C10.5,12.7332492 10.1082492,13.125 9.625,13.125 Z M16.1875,10.5 C15.7042508,10.5 15.3125,10.1082492 15.3125,9.625 C15.3125,9.14175084 15.7042508,8.75 16.1875,8.75 C16.6707492,8.75 17.0625,9.14175084 17.0625,9.625 C17.0625,10.1082492 16.6707492,10.5 16.1875,10.5 Z M13.5625,10.5 C13.0792508,10.5 12.6875,10.1082492 12.6875,9.625 C12.6875,9.14175084 13.0792508,8.75 13.5625,8.75 C14.0457492,8.75 14.4375,9.14175084 14.4375,9.625 C14.4375,10.1082492 14.0457492,10.5 13.5625,10.5 Z M10.9375,10.5 C10.4542508,10.5 10.0625,10.1082492 10.0625,9.625 C10.0625,9.14175084 10.4542508,8.75 10.9375,8.75 C11.4207492,8.75 11.8125,9.14175084 11.8125,9.625 C11.8125,10.1082492 11.4207492,10.5 10.9375,10.5 Z M8.3125,10.5 C7.82925084,10.5 7.4375,10.1082492 7.4375,9.625 C7.4375,9.14175084 7.82925084,8.75 8.3125,8.75 C8.79574916,8.75 9.1875,9.14175084 9.1875,9.625 C9.1875,10.1082492 8.79574916,10.5 8.3125,10.5 Z M7,13.125 C6.51675084,13.125 6.125,12.7332492 6.125,12.25 C6.125,11.7667508 6.51675084,11.375 7,11.375 C7.48324916,11.375 7.875,11.7667508 7.875,12.25 C7.875,12.7332492 7.48324916,13.125 7,13.125 Z M12.8902439,18.375 L11.6097561,18.375 C11.0121951,18.375 10.5,18.7788462 10.5,19.25 C10.5,19.7211538 11.0121951,20.125 11.6097561,20.125 L12.8902439,20.125 C13.4878049,20.125 14,19.7211538 14,19.25 C14,18.7788462 13.4878049,18.375 12.8902439,18.375 Z"/>
      <circle cx="25.5" cy="19.5" r="9.5" fill="#FFF"/>
      <text fill="#484848" font-family="FontAwesome" font-size="17">
        <tspan x="18.214" y="25.625"></tspan>
      </text>
    </g>
  </g>
</svg>
