<svg xmlns="http://www.w3.org/2000/svg" width="92" height="54" viewBox="0 0 92 54">
  <defs>
    <filter id="suggestions-a" width="103.7%" height="117.1%" x="-1.8%" y="-8.6%" filterUnits="objectBoundingBox">
      <feOffset in="SourceAlpha" result="shadowOffsetOuter1"/>
      <feGaussianBlur in="shadowOffsetOuter1" result="shadowBlurOuter1" stdDeviation="2"/>
      <feColorMatrix in="shadowBlurOuter1" result="shadowMatrixOuter1" values="0 0 0 0 0   0 0 0 0 0   0 0 0 0 0  0 0 0 0.5 0"/>
      <feMerge>
        <feMergeNode in="shadowMatrixOuter1"/>
        <feMergeNode in="SourceGraphic"/>
      </feMerge>
    </filter>
  </defs>
  <g fill="#484848" fill-rule="evenodd" filter="url(#suggestions-a)" transform="translate(3 1)">
    <path d="M47.5357309,10.7856926 C47.5357309,11.1082376 47.2511324,11.3928362 46.9285874,11.3928362 C46.6060423,11.3928362 46.3214438,11.1082376 46.3214438,10.7856926 C46.3214438,9.47653923 44.2913074,8.96426183 43.2857259,8.96426183 C42.9631808,8.96426183 42.6785823,8.67966328 42.6785823,8.35711825 C42.6785823,8.03457322 42.9631808,7.74997467 43.2857259,7.74997467 C45.0502369,7.74997467 47.5357309,8.67966328 47.5357309,10.7856926 Z M50.5714488,10.7856926 C50.5714488,6.99104519 46.7198817,4.71425676 43.2857259,4.71425676 C39.85157,4.71425676 36.0000029,6.99104519 36.0000029,10.7856926 C36.0000029,11.9999797 36.4933071,13.2711866 37.290183,14.2008752 C37.6506745,14.6182864 38.0680857,15.0167244 38.4475505,15.4531089 C39.7946503,17.065834 40.9330445,18.9631577 41.1227769,21.1071334 L45.4486749,21.1071334 C45.6384072,18.9631577 46.7768015,17.065834 48.1239013,15.4531089 C48.503366,15.0167244 48.9207772,14.6182864 49.2812687,14.2008752 C50.0781447,13.2711866 50.5714488,11.9999797 50.5714488,10.7856926 Z M53.0000232,10.7856926 C53.0000232,12.739936 52.3549331,14.4285541 51.0457798,15.8705201 C49.7366264,17.3124861 48.0100619,19.3426224 47.858276,21.3727588 C48.4084998,21.6953038 48.7500181,22.3024474 48.7500181,22.9285642 C48.7500181,23.3839219 48.579259,23.8203063 48.2756872,24.1428514 C48.579259,24.4653964 48.7500181,24.9017808 48.7500181,25.3571385 C48.7500181,25.9832553 48.4274731,26.5524524 47.8962224,26.8939707 C48.0480083,27.159596 48.1428745,27.482141 48.1428745,27.7857128 C48.1428745,29.0189732 47.1752394,29.6071436 46.0747917,29.6071436 C45.5814875,30.7075913 44.4810398,31.4285743 43.2857259,31.4285743 C42.0904119,31.4285743 40.9899642,30.7075913 40.49666,29.6071436 C39.3962123,29.6071436 38.4285772,29.0189732 38.4285772,27.7857128 C38.4285772,27.482141 38.5234434,27.159596 38.6752293,26.8939707 C38.1439787,26.5524524 37.8214336,25.9832553 37.8214336,25.3571385 C37.8214336,24.9017808 37.9921928,24.4653964 38.2957646,24.1428514 C37.9921928,23.8203063 37.8214336,23.3839219 37.8214336,22.9285642 C37.8214336,22.3024474 38.1629519,21.6953038 38.7131758,21.3727588 C38.5613899,19.3426224 36.8348253,17.3124861 35.525672,15.8705201 C34.2165186,14.4285541 33.5714286,12.739936 33.5714286,10.7856926 C33.5714286,5.62497213 38.4854969,2.28568244 43.2857259,2.28568244 C48.0859548,2.28568244 53.0000232,5.62497213 53.0000232,10.7856926 Z" transform="rotate(50 43.286 16.857)"/>
    <text font-family="PNCSans-Medium, PNC Sans" font-size="13" font-weight="400">
      <tspan x=".308" y="49">SUGGESTIONS</tspan>
    </text>
  </g>
</svg>
