<?xml version="1.0" encoding="UTF-8"?>
<svg width="34px" height="33px" viewBox="0 0 34 33" version="1.1" xmlns="http://www.w3.org/2000/svg" xmlns:xlink="http://www.w3.org/1999/xlink">
    <!-- Generator: Sketch 46.2 (44496) - http://www.bohemiancoding.com/sketch -->
    <title>suggestion-icon</title>
    <desc>Created with Sketch.</desc>
    <defs>
        <filter x="-1.8%" y="-8.6%" width="103.7%" height="117.1%" filterUnits="objectBoundingBox" id="filter-1">
            <feOffset dx="0" dy="0" in="SourceAlpha" result="shadowOffsetOuter1"></feOffset>
            <feGaussianBlur stdDeviation="2" in="shadowOffsetOuter1" result="shadowBlurOuter1"></feGaussianBlur>
            <feColorMatrix values="0 0 0 0 0   0 0 0 0 0   0 0 0 0 0  0 0 0 0.5 0" type="matrix" in="shadowBlurOuter1" result="shadowMatrixOuter1"></feColorMatrix>
            <feMerge>
                <feMergeNode in="shadowMatrixOuter1"></feMergeNode>
                <feMergeNode in="SourceGraphic"></feMergeNode>
            </feMerge>
        </filter>
    </defs>
    <g id="Mobile" stroke="none" stroke-width="1" fill="none" fill-rule="evenodd">
        <g id="Tracker---goal-reached" transform="translate(-172.000000, -335.000000)" fill="#484848">
            <g id="ctas" filter="url(#filter-1)" transform="translate(25.000000, 327.000000)">
                <path d="M167.535731,19.7364926 C167.535731,20.0590376 167.251132,20.3436361 166.928587,20.3436361 C166.606042,20.3436361 166.321444,20.0590376 166.321444,19.7364926 C166.321444,18.4273392 164.291307,17.9150618 163.285726,17.9150618 C162.963181,17.9150618 162.678582,17.6304633 162.678582,17.3079182 C162.678582,16.9853732 162.963181,16.7007747 163.285726,16.7007747 C165.050237,16.7007747 167.535731,17.6304633 167.535731,19.7364926 Z M170.571449,19.7364926 C170.571449,15.9418452 166.719882,13.6650567 163.285726,13.6650567 C159.85157,13.6650567 156.000003,15.9418452 156.000003,19.7364926 C156.000003,20.9507797 156.493307,22.2219866 157.290183,23.1516752 C157.650675,23.5690864 158.068086,23.9675244 158.44755,24.4039088 C159.79465,26.016634 160.933044,27.9139577 161.122777,30.0579334 L165.448675,30.0579334 C165.638407,27.9139577 166.776801,26.016634 168.123901,24.4039088 C168.503366,23.9675244 168.920777,23.5690864 169.281269,23.1516752 C170.078145,22.2219866 170.571449,20.9507797 170.571449,19.7364926 Z M173.000023,19.7364926 C173.000023,21.690736 172.354933,23.379354 171.04578,24.82132 C169.736626,26.2632861 168.010062,28.2934224 167.858276,30.3235588 C168.4085,30.6461038 168.750018,31.2532474 168.750018,31.8793642 C168.750018,32.3347219 168.579259,32.7711063 168.275687,33.0936513 C168.579259,33.4161964 168.750018,33.8525808 168.750018,34.3079385 C168.750018,34.9340553 168.427473,35.5032524 167.896222,35.8447707 C168.048008,36.110396 168.142875,36.432941 168.142875,36.7365128 C168.142875,37.9697732 167.175239,38.5579436 166.074792,38.5579436 C165.581488,39.6583913 164.48104,40.3793743 163.285726,40.3793743 C162.090412,40.3793743 160.989964,39.6583913 160.49666,38.5579436 C159.396212,38.5579436 158.428577,37.9697732 158.428577,36.7365128 C158.428577,36.432941 158.523443,36.110396 158.675229,35.8447707 C158.143979,35.5032524 157.821434,34.9340553 157.821434,34.3079385 C157.821434,33.8525808 157.992193,33.4161964 158.295765,33.0936513 C157.992193,32.7711063 157.821434,32.3347219 157.821434,31.8793642 C157.821434,31.2532474 158.162952,30.6461038 158.713176,30.3235588 C158.56139,28.2934224 156.834825,26.2632861 155.525672,24.82132 C154.216519,23.379354 153.571429,21.690736 153.571429,19.7364926 C153.571429,14.5757721 158.485497,11.2364824 163.285726,11.2364824 C168.085955,11.2364824 173.000023,14.5757721 173.000023,19.7364926 Z" id="suggestion-icon" transform="translate(163.285726, 25.807928) rotate(50.000000) translate(-163.285726, -25.807928) "></path>
            </g>
        </g>
    </g>
</svg>