<?xml version="1.0" standalone="no"?>
<!DOCTYPE svg PUBLIC "-//W3C//DTD SVG 1.1//EN" "http://www.w3.org/Graphics/SVG/1.1/DTD/svg11.dtd" >
<svg xmlns="http://www.w3.org/2000/svg" xmlns:xlink="http://www.w3.org/1999/xlink" version="1.1">
<metadata>
Created by FontForge 20161013 at Tue Aug  2 17:05:59 2011
 By ,,,
</metadata>
<defs>
<font id="PNCSans-LightItalic" horiz-adv-x="488" >
  <font-face 
    font-family="PNC Sans"
    font-weight="300"
    font-style="italic"
    font-stretch="normal"
    units-per-em="1000"
    panose-1="0 0 4 0 0 0 0 0 0 0"
    ascent="712"
    descent="-288"
    x-height="482"
    cap-height="712"
    bbox="-143 -236 1106 976"
    underline-thickness="36"
    underline-position="-213"
    unicode-range="U+0020-FB02"
  />
<missing-glyph horiz-adv-x="1000" 
 />
    <glyph glyph-name=".notdef" horiz-adv-x="1000" 
 />
    <glyph glyph-name=".null" horiz-adv-x="0" 
 />
    <glyph glyph-name="nonmarkingreturn" horiz-adv-x="333" 
 />
    <glyph glyph-name="space" unicode=" " horiz-adv-x="242" 
 />
    <glyph glyph-name="exclam" unicode="!" horiz-adv-x="289" 
d="M277 712l-107 -525h-47l101 525h53zM157 67l-13 -67h-64l14 67h63z" />
    <glyph glyph-name="quotedbl" unicode="&#x22;" horiz-adv-x="388" 
d="M392 712l-32 -156h-59l31 156h60zM244 712l-31 -156h-60l32 156h59z" />
    <glyph glyph-name="numbersign" unicode="#" horiz-adv-x="416" 
d="M349 542h67l-1 -2l-7 -34h-72l-41 -115h69l-7 -36h-75l-64 -177h-2h-39l64 177h-131l-63 -177h-38h-3l63 177h-69l1 3l7 33h74l41 115h-71l7 36h76l61 170h3h39l-61 -170h131l60 170h38h4zM164 506l-41 -115h131l4 12l37 103h-131z" />
    <glyph glyph-name="dollar" unicode="$" horiz-adv-x="558" 
d="M543 638l-37 -32q-54 61 -128 67l-56 -296l24 -5q76 -16 113.5 -56.5t37.5 -110.5q0 -93 -70.5 -150t-177.5 -61l-20 -108h-43l21 109q-59 4 -102 26.5t-82 70.5l40 35q62 -80 152 -87l57 300l-20 5q-138 32 -138 153q0 34 12.5 69t38 69t72 56.5t106.5 25.5l17 88h43
l-17 -89q96 -8 157 -79zM445 205q0 61 -32.5 86.5t-99.5 39.5l-55 -292q82 7 134.5 52t52.5 114zM335 673q-77 -7 -123.5 -58.5t-46.5 -118.5q0 -85 116 -109z" />
    <glyph glyph-name="percent" unicode="%" horiz-adv-x="793" 
d="M386 616q0 -21 -3 -36l-19 -101q-25 -134 -148 -134q-41 0 -72.5 24.5t-31.5 78.5q0 21 3 36l19 101q25 134 148 134q41 0 72.5 -24.5t31.5 -78.5zM727 265q0 -21 -3 -36l-19 -101q-25 -134 -148 -134q-41 0 -72.5 24.5t-31.5 78.5q0 21 3 36l19 101q25 134 148 134
q41 0 72.5 -24.5t31.5 -78.5zM687 264q0 68 -69 68q-84 0 -102 -98l-20 -106q-3 -15 -3 -30q0 -68 69 -68q84 0 102 98l20 106q3 15 3 30zM346 615q0 68 -69 68q-84 0 -102 -98l-20 -106q-3 -15 -3 -30q0 -68 69 -68q84 0 102 98l20 106q3 15 3 30zM671 712l-458 -712h-44
l457 712h45z" />
    <glyph glyph-name="ampersand" unicode="&#x26;" horiz-adv-x="710" 
d="M609 341q-17 -131 -100 -219l75 -122h-62l-51 85q-36 -34 -94.5 -62.5t-129.5 -28.5q-81 0 -130.5 45t-49.5 121q0 85 48.5 140.5t155.5 120.5q0 1 -7 12.5t-9.5 16t-9 16t-9 20t-6.5 20.5t-5.5 24t-1.5 25q0 66 43 114.5t119 48.5q54 0 87 -34t33 -88q0 -87 -108 -153
l-57 -35l144 -244q57 66 74 177h51zM446 125l-152 256q-93 -57 -134 -103t-41 -116q0 -54 35.5 -88.5t92.5 -34.5q104 0 199 86zM455 596q0 38 -21 57.5t-52 19.5q-46 0 -76.5 -33.5t-30.5 -86.5q0 -38 42 -107l44 27q47 29 70.5 55.5t23.5 67.5z" />
    <glyph glyph-name="quotesingle" unicode="'" horiz-adv-x="240" 
d="M244 712l-31 -156h-60l32 156h59z" />
    <glyph glyph-name="parenleft" unicode="(" horiz-adv-x="276" 
d="M146 -73l-42 -20q-82 211 -35 449q48 239 214 449l33 -20q-80 -111 -128 -210t-71 -219q-23 -135 -15 -227t44 -202z" />
    <glyph glyph-name="parenright" unicode=")" horiz-adv-x="261" 
d="M20 -73l33 -20q167 210 214 449q47 237 -35 449l-42 -20q36 -111 44 -202.5t-15 -226.5q-24 -121 -72 -220t-127 -209z" />
    <glyph glyph-name="asterisk" unicode="*" horiz-adv-x="444" 
d="M446 577l-128 -40l102 -86l-27 -32l-98 91l-24 -132l-42 8l29 131l-125 -46l-14 40l128 40l-102 86l27 32l98 -91l24 132l42 -8l-29 -131l125 46z" />
    <glyph glyph-name="plus" unicode="+" 
d="M447 285l-9 -44h-170l-36 -182h-45l36 182h-172l8 44h173l37 182h44l-36 -182h170z" />
    <glyph glyph-name="comma" unicode="," horiz-adv-x="247" 
d="M172 74h-71l-15 -74h36q-3 -24 -18.5 -48.5t-36.5 -31.5l-7 -37q38 11 63.5 43.5t33.5 72.5z" />
    <glyph glyph-name="hyphen" unicode="-" horiz-adv-x="405" 
d="M336 286l-9 -45h-249l9 45h249z" />
    <glyph glyph-name="period" unicode="." horiz-adv-x="220" 
d="M145 74l-14 -74h-71l15 74h70z" />
    <glyph glyph-name="slash" unicode="/" horiz-adv-x="323" 
d="M432 786l-442 -860h-53l443 860h52z" />
    <glyph glyph-name="zero" unicode="0" 
d="M483 569q0 -23 -5 -46l-66 -334q-9 -46 -27.5 -81.5t-40.5 -56t-48.5 -34t-50 -18.5t-46.5 -5q-60 0 -103.5 36.5t-43.5 112.5q0 23 5 46l66 334q9 46 27.5 81.5t40.5 56t48.5 34t50 18.5t46.5 5q60 0 103.5 -36.5t43.5 -112.5zM435 570q0 53 -29 79.5t-69 26.5
q-56 0 -103.5 -37.5t-62.5 -115.5l-65 -334q-6 -32 -6 -47q0 -53 29 -79.5t69 -26.5q56 0 103.5 37.5t62.5 115.5l65 334q6 32 6 47z" />
    <glyph glyph-name="one" unicode="1" 
d="M392 712l-143 -712h-48l131 653l-148 -114l12 63l147 110h49z" />
    <glyph glyph-name="two" unicode="2" 
d="M487 560q0 -55 -21.5 -95t-62.5 -85l-312 -338h302l-8 -42h-364l9 42l343 374q35 38 50 70t15 75q0 56 -28 85.5t-79 29.5q-57 0 -99.5 -34.5t-58.5 -107.5h-50q18 90 73 137t135 47q73 0 114.5 -41t41.5 -117z" />
    <glyph glyph-name="three" unicode="3" 
d="M471 570q0 -72 -34.5 -127.5t-96.5 -76.5q82 -28 82 -131q0 -94 -62 -168t-169 -74q-83 0 -123 42t-40 110q0 15 1 24h47q-1 -7 -1 -21q0 -51 30 -82t86 -31q78 0 130 59t52 142q0 107 -121 107h-14l8 42h15q72 0 117 54.5t45 131.5q0 48 -28.5 77t-81.5 29
q-54 0 -96.5 -36t-58.5 -93h-51q24 85 80 128t132 43q70 0 111 -39t41 -110z" />
    <glyph glyph-name="four" unicode="4" 
d="M436 162l-9 -42h-93l-24 -120h-48l24 120h-270l8 42l354 550h53l-353 -550h216l44 222h49l-44 -222h93z" />
    <glyph glyph-name="five" unicode="5" 
d="M506 712l-9 -42h-282l-51 -253q52 51 136 51q69 0 104 -40.5t35 -103.5q0 -41 -10 -91q-24 -130 -78 -184q-56 -56 -142 -56q-81 0 -117 40.5t-36 101.5q0 12 1 22h48q-1 -8 -1 -22q0 -45 26 -72.5t74 -27.5q81 0 120.5 52.5t56.5 145.5q9 50 9 85q0 108 -96 108
q-98 0 -145 -78h-41l73 364h325z" />
    <glyph glyph-name="six" unicode="6" 
d="M418 220q0 -96 -58.5 -161t-137.5 -65q-84 0 -125.5 50.5t-41.5 123.5q0 45 15.5 85.5t56.5 101.5l238 357h51l-219 -329q32 13 60 13q76 0 118.5 -49t42.5 -127zM369 220q0 57 -30 95.5t-83 38.5q-50 0 -86.5 -31.5t-51.5 -72t-15 -80.5q0 -57 30 -95.5t83 -38.5
q70 0 111.5 56.5t41.5 127.5z" />
    <glyph glyph-name="seven" unicode="7" 
d="M533 712l-8 -42l-367 -670h-53l368 670h-260l-21 -107h-48l29 149h360z" />
    <glyph glyph-name="eight" unicode="8" 
d="M484 566q0 -67 -34 -120.5t-94 -78.5q75 -52 75 -147q0 -42 -14 -81t-40.5 -72t-71 -53t-100.5 -20q-69 0 -117.5 42t-48.5 122q0 155 146 215q-64 44 -64 120q0 97 60 161t150 64q66 0 109.5 -41t43.5 -111zM383 223q0 58 -33.5 91t-86.5 33q-79 0 -127.5 -54
t-48.5 -133q0 -58 33.5 -91t86.5 -33q80 0 128 53.5t48 133.5zM436 566q0 51 -28.5 80.5t-79.5 29.5q-73 0 -116 -54.5t-43 -121.5q0 -51 28.5 -80.5t79.5 -29.5q73 0 116 54.5t43 121.5z" />
    <glyph glyph-name="nine" unicode="9" 
d="M479 544q0 -45 -15.5 -85.5t-56.5 -101.5l-238 -357h-51l219 329q-32 -13 -60 -13q-76 0 -118.5 49t-42.5 127q0 96 58.5 161t137.5 65q84 0 125.5 -50.5t41.5 -123.5zM431 542q0 57 -30 95.5t-83 38.5q-70 0 -111.5 -56.5t-41.5 -127.5q0 -57 30 -95.5t83 -38.5
q50 0 86.5 31.5t51.5 72t15 80.5z" />
    <glyph glyph-name="colon" unicode=":" horiz-adv-x="283" 
d="M213 386l-15 -74h-70l15 74h70zM155 74l-15 -74h-70l15 74h70z" />
    <glyph glyph-name="semicolon" unicode=";" horiz-adv-x="311" 
d="M183 74h-71l-15 -74h36q-3 -24 -18.5 -48.5t-36.5 -31.5l-8 -37q38 11 63.5 43.5t34.5 72.5zM155 312h71l15 74h-71z" />
    <glyph glyph-name="less" unicode="&#x3c;" horiz-adv-x="664" 
d="M492 214l-12 -56l-373 173l-2 1l9 46l2 1l443 172l-12 -57l-374 -139z" />
    <glyph glyph-name="equal" unicode="=" 
d="M462 359l-9 -44h-388l9 44h388zM433 211l-9 -44h-387l9 44h387z" />
    <glyph glyph-name="greater" unicode="&#x3e;" horiz-adv-x="664" 
d="M557 379l2 -1l-9 -46l-2 -1l-443 -173l11 56l375 141l-319 139l11 57z" />
    <glyph glyph-name="question" unicode="?" horiz-adv-x="463" 
d="M140 0h67l13 67h-67zM346 718q63 0 102.5 -38t25.5 -109q-2 -11 -5 -21t-9.5 -20.5t-9.5 -17.5t-13 -18t-13 -15.5t-16 -17t-15 -14.5t-17.5 -16t-16.5 -15q-4 -4 -16 -14.5t-16 -14.5t-14 -13.5t-14.5 -14.5t-12 -14.5t-11.5 -17t-9 -17.5t-8.5 -21t-5.5 -23l-10 -49
h-51l10 47q7 39 27.5 73.5t36.5 51t50 47.5q3 3 9 8q29 26 44.5 41t33 40.5t22.5 49.5q7 38 -15.5 68t-69.5 30q-80 0 -128 -77l-40 23q70 99 175 99z" />
    <glyph glyph-name="at" unicode="@" horiz-adv-x="952" 
d="M545 642h7h-3h-4zM549 642q200 -1 284 -115.5t47 -298.5q-1 -5 -2.5 -14t-9.5 -34.5t-17.5 -49t-27 -52t-38.5 -49t-52 -34.5t-66 -14q-14 0 -30.5 3t-39 19t-29.5 43q-60 -60 -156 -60q-148 0 -148 113q0 68 44 112q51 51 141 51h153l12 60q4 20 4 36q0 39 -28.5 59
t-78.5 20q-48 0 -79.5 -14.5t-62.5 -48.5l-31 34q34 38 74 55t98 17q27 0 51 -4.5t49.5 -16.5t40.5 -38t15 -63q0 -12 -4 -36l-47 -226l-2 -11q-4 -35 10 -48.5t45 -13.5q59 0 101 57.5t59 147.5q18 79 10 146.5t-38.5 116.5t-96 76.5t-162.5 28.5q-98 -1 -190 -54.5
t-154 -143t-76 -191.5q-22 -160 71 -274t240 -115l-6 -46q-173 1 -277 128.5t-79 306.5t165.5 306t313.5 129zM581 155l13 68h-140q-64 0 -102.5 -32t-38.5 -92q0 -36 26 -53.5t84 -17.5q71 0 115 42q33 33 43 85z" />
    <glyph glyph-name="A" unicode="A" horiz-adv-x="572" 
d="M510 0h-53l-25 173h-314l-94 -173h-57l390 712h46zM427 218l-60 422l-226 -422h286z" />
    <glyph glyph-name="B" unicode="B" horiz-adv-x="639" 
d="M608 553q0 -57 -31.5 -110t-106.5 -79q88 -39 88 -139q0 -99 -63.5 -162t-162.5 -63h-276l143 712h233q46 0 80 -12t52 -28.5t28.5 -40t13 -41t2.5 -37.5zM506 225q0 56 -34 86t-92 30h-204l-59 -296h213q77 0 126.5 50.5t49.5 129.5zM556 555q0 112 -129 112h-185
l-56 -280h196q78 0 126 48t48 120z" />
    <glyph glyph-name="C" unicode="C" horiz-adv-x="612" 
d="M590 513h-52q0 74 -39.5 117t-105.5 43q-87 0 -153 -66q-32 -32 -49.5 -83.5t-39.5 -167.5q-25 -130 -25 -174q0 -65 43.5 -104t104.5 -39q76 0 130 46t80 114h53q-29 -95 -100.5 -150t-162.5 -55q-84 0 -142 49t-58 139q0 42 25 174q25 134 44.5 188.5t61.5 96.5
q34 34 83.5 55.5t102.5 21.5q96 0 147 -56t52 -149z" />
    <glyph glyph-name="D" unicode="D" horiz-adv-x="644" 
d="M613 520q0 -46 -21 -154q-25 -130 -51 -195.5t-73 -107.5q-70 -63 -181 -63h-231l143 712h218q29 0 55 -5t52.5 -18t45.5 -34t31 -55.5t12 -79.5zM562 520q0 68 -37.5 107.5t-117.5 39.5h-165l-125 -622h163q95 0 157 55q35 32 58.5 92.5t44.5 173.5q22 114 22 154z" />
    <glyph glyph-name="E" unicode="E" horiz-adv-x="570" 
d="M609 712l-9 -45h-358l-57 -285h307l-9 -45h-307l-59 -292h365l-9 -45h-417l143 712h410z" />
    <glyph glyph-name="F" unicode="F" horiz-adv-x="547" 
d="M609 712l-9 -45h-358l-59 -297h307l-9 -45h-308l-65 -325h-52l143 712h410z" />
    <glyph glyph-name="G" unicode="G" horiz-adv-x="620" 
d="M590 513h-52q0 74 -39.5 117t-105.5 43q-87 0 -153 -66q-30 -30 -48.5 -82t-40.5 -169q-25 -134 -25 -172q0 -69 46.5 -107t105.5 -38q69 0 131.5 51.5t83.5 159.5l13 69h-181l8 45h233l-22 -117q-22 -113 -86 -177q-76 -76 -184 -76q-81 0 -140.5 49.5t-59.5 138.5
q0 37 25 174q25 134 44.5 188.5t60.5 95.5q35 35 84.5 56.5t102.5 21.5q96 0 147 -56t52 -149z" />
    <glyph glyph-name="H" unicode="H" horiz-adv-x="664" 
d="M655 712l-143 -712h-52l68 337h-352l-68 -337h-52l143 712h52l-66 -330h352l66 330h52z" />
    <glyph glyph-name="I" unicode="I" horiz-adv-x="260" 
d="M251 712l-143 -712h-52l143 712h52z" />
    <glyph glyph-name="J" unicode="J" horiz-adv-x="473" 
d="M473 712l-101 -503q-44 -215 -236 -215q-93 0 -142 62l38 33q41 -50 110 -50q70 0 117 47.5t64 135.5l98 490h52z" />
    <glyph glyph-name="K" unicode="K" horiz-adv-x="616" 
d="M655 712l-264 -273l164 -439h-56l-147 402l-205 -208l-39 -194h-52l143 712h52l-88 -439l426 439h66z" />
    <glyph glyph-name="L" unicode="L" horiz-adv-x="545" 
d="M478 45l-9 -45h-413l143 712h52l-134 -667h361z" />
    <glyph glyph-name="M" unicode="M" horiz-adv-x="777" 
d="M768 712l-143 -712h-52l119 585l-300 -467h-52l-113 474l-118 -592h-53l143 712h51l126 -535l341 535h51z" />
    <glyph glyph-name="N" unicode="N" horiz-adv-x="702" 
d="M693 712l-143 -712h-52l-265 623l-125 -623h-52l143 712h52l265 -623l125 623h52z" />
    <glyph glyph-name="O" unicode="O" horiz-adv-x="619" 
d="M587 530q0 -37 -25 -174q-25 -134 -44.5 -188.5t-60.5 -95.5q-78 -78 -191 -78q-82 0 -137 51.5t-55 136.5q0 37 25 174q25 134 44.5 188.5t60.5 95.5q78 78 191 78q82 0 137 -51.5t55 -136.5zM535 528q0 68 -41.5 106.5t-97.5 38.5q-90 0 -156 -66q-30 -30 -48.5 -82
t-40.5 -169q-25 -134 -25 -172q0 -68 41.5 -106.5t97.5 -38.5q90 0 156 66q30 30 48.5 82t40.5 169q25 134 25 172z" />
    <glyph glyph-name="P" unicode="P" horiz-adv-x="599" 
d="M615 546q0 -106 -67 -173.5t-181 -67.5h-198l-61 -305h-52l143 712h238q94 0 136 -48.5t42 -117.5zM563 545q0 53 -31.5 87.5t-99.5 34.5h-191l-63 -317h191q85 0 139.5 53.5t54.5 141.5z" />
    <glyph glyph-name="Q" unicode="Q" horiz-adv-x="619" 
d="M587 530q0 -37 -25 -174q-24 -128 -42.5 -183t-56.5 -95l63 -83l-38 -34l-64 83q-71 -50 -158 -50q-82 0 -137 51.5t-55 136.5q0 37 25 174q25 134 44.5 188.5t60.5 95.5q78 78 191 78q82 0 137 -51.5t55 -136.5zM535 528q0 68 -41.5 106.5t-97.5 38.5q-90 0 -156 -66
q-30 -30 -48.5 -82t-40.5 -169q-25 -134 -25 -172q0 -68 41.5 -106.5t97.5 -38.5q73 0 131 44l-78 101l38 34l77 -100q25 30 41 81t36 157q25 134 25 172z" />
    <glyph glyph-name="R" unicode="R" horiz-adv-x="627" 
d="M614 557q0 -85 -52.5 -148.5t-143.5 -76.5l106 -332h-57l-104 331h-188l-67 -331h-52l143 712h243q91 0 131.5 -44.5t40.5 -110.5zM562 555q0 52 -31.5 82t-92.5 30h-196l-59 -291h199q82 0 131 53.5t49 125.5z" />
    <glyph glyph-name="S" unicode="S" horiz-adv-x="558" 
d="M543 638l-37 -32q-29 34 -62.5 51t-87.5 17q-86 0 -138.5 -53t-52.5 -125q0 -81 111 -107l70 -16q78 -18 114.5 -57t36.5 -111q0 -97 -74.5 -154t-186.5 -57q-71 0 -120.5 23t-92.5 75l40 35q67 -88 178 -88q86 0 145 46.5t59 119.5q0 57 -28.5 83t-81.5 38l-70 16
q-151 34 -151 156q0 35 13.5 71.5t41 71t77.5 56t115 21.5q113 0 182 -80z" />
    <glyph glyph-name="T" unicode="T" horiz-adv-x="512" 
d="M578 712l-9 -45h-201l-134 -667h-52l134 667h-202l9 45h455z" />
    <glyph glyph-name="U" unicode="U" horiz-adv-x="654" 
d="M653 712l-96 -481q-22 -112 -95.5 -174.5t-180.5 -62.5q-75 0 -133.5 47.5t-58.5 142.5q0 24 7 61l93 467h52l-95 -474q-5 -27 -5 -53q0 -59 36.5 -102.5t109.5 -43.5q77 0 139 52t82 151l93 470h52z" />
    <glyph glyph-name="V" unicode="V" horiz-adv-x="507" 
d="M591 712l-361 -712h-44l-84 712h53l70 -620l309 620h57z" />
    <glyph glyph-name="W" unicode="W" horiz-adv-x="804" 
d="M876 712l-306 -712h-52l-39 620l-285 -620h-52l-29 712h53l21 -619l281 619h53l38 -619l261 619h56z" />
    <glyph glyph-name="X" unicode="X" horiz-adv-x="507" 
d="M566 712l-262 -351l141 -361h-57l-121 320l-238 -320h-61l279 371l-129 341h57l109 -301l220 301h62z" />
    <glyph glyph-name="Y" unicode="Y" horiz-adv-x="469" 
d="M554 712l-281 -420l-59 -292h-52l60 297l-118 415h53l101 -362l238 362h58z" />
    <glyph glyph-name="Z" unicode="Z" horiz-adv-x="534" 
d="M562 712l-9 -45l-477 -622h359l-9 -45h-414l11 54l472 613h-342l9 45h400z" />
    <glyph glyph-name="bracketleft" unicode="[" horiz-adv-x="276" 
d="M338 786l-9 -42h-88l-155 -776h96l-8 -42h-145l172 860h137z" />
    <glyph glyph-name="backslash" unicode="\" horiz-adv-x="318" 
d="M255 -74h-47l-99 860h47z" />
    <glyph glyph-name="bracketright" unicode="]" horiz-adv-x="276" 
d="M292 786l-171 -860h-137l8 39h91l156 782h-100l8 39h145z" />
    <glyph glyph-name="asciicircum" unicode="^" 
d="M454 422h-46l-76 246l-174 -246h-51l209 296h46z" />
    <glyph glyph-name="underscore" unicode="_" 
d="M416 -122l-7 -36h-489l8 36h488z" />
    <glyph glyph-name="grave" unicode="`" horiz-adv-x="475" 
d="M347 584h-52l-71 145h61z" />
    <glyph glyph-name="a" unicode="a" horiz-adv-x="498" 
d="M432 366q0 -12 -4 -36l-66 -330h-48l11 50q-56 -56 -147 -56q-148 0 -148 113q0 68 44 112q51 51 141 51h153l12 60q4 20 4 36q0 39 -28.5 59t-78.5 20q-48 0 -79.5 -14.5t-62.5 -48.5l-31 34q34 38 74 55t98 17q27 0 51 -4.5t49.5 -16.5t40.5 -38t15 -63zM360 231h-140
q-64 0 -102.5 -32t-38.5 -92q0 -36 26 -53.5t84 -17.5q71 0 115 42q33 33 43 85z" />
    <glyph glyph-name="b" unicode="b" horiz-adv-x="513" 
d="M458 330q0 -38 -10 -89q-27 -138 -85 -196q-51 -51 -131 -51q-93 0 -125 73l-14 -67h-49l142 712h49l-58 -291q50 67 140 67q141 0 141 -158zM410 330q0 116 -99 116q-75 0 -113.5 -56t-56.5 -149q-11 -57 -11 -89q0 -116 99 -116q75 0 113.5 56t56.5 149q11 57 11 89z
" />
    <glyph glyph-name="c" unicode="c" horiz-adv-x="469" 
d="M445 414l-36 -29q-41 61 -107 61q-70 0 -122 -55q-52 -56 -69 -150q-8 -43 -8 -76q0 -65 35 -97t85 -32q71 0 131 63l30 -35q-69 -70 -161 -70q-86 0 -127 50t-41 124q0 38 7 73q21 113 84 180t161 67q87 0 138 -74z" />
    <glyph glyph-name="d" unicode="d" horiz-adv-x="513" 
d="M516 712l-142 -712h-49l13 62q-56 -68 -141 -68q-141 0 -141 158q0 39 10 89q27 137 85 195q52 52 132 52q91 0 124 -73l60 297h49zM384 332q0 114 -99 114q-75 0 -113.5 -56t-56.5 -149q-11 -57 -11 -91q0 -114 99 -114q75 0 113.5 56t56.5 149q11 57 11 91z" />
    <glyph glyph-name="e" unicode="e" horiz-adv-x="499" 
d="M440 326q0 -37 -11 -95h-319q-7 -40 -7 -71q0 -56 28 -89.5t85 -33.5q78 0 144 60l33 -33q-76 -70 -179 -70q-75 0 -117 43.5t-42 121.5q0 55 13 110t39 105.5t73.5 82t109.5 31.5q73 0 111.5 -46.5t38.5 -115.5zM392 326q0 60 -29.5 90t-73.5 30q-127 0 -172 -176h270
q5 30 5 56z" />
    <glyph glyph-name="f" unicode="f" horiz-adv-x="289" 
d="M353 712l-9 -42h-32q-71 0 -87 -78l-22 -110h106l-7 -36h-106l-89 -446h-49l89 446h-62l7 36h62l22 110q24 120 132 120h45z" />
    <glyph glyph-name="g" unicode="g" horiz-adv-x="513" 
d="M469 482l-101 -506q-13 -66 -40 -111t-61.5 -65.5t-63 -28t-58.5 -7.5q-89 0 -142 64l36 31q41 -53 107 -53q60 0 107.5 40t66.5 130l18 85q-52 -67 -144 -67q-69 0 -104 40.5t-35 113.5q0 34 10 93q25 136 85 196q51 51 131 51q94 0 126 -73l13 67h49zM384 333
q0 113 -99 113q-132 0 -171 -205q-11 -57 -11 -92q0 -113 99 -113q132 0 171 205q11 57 11 92z" />
    <glyph glyph-name="h" unicode="h" horiz-adv-x="531" 
d="M463 351q0 -21 -5 -46l-61 -305h-49l60 299q6 34 6 51q0 47 -27.5 71.5t-73.5 24.5q-13 0 -27.5 -2.5t-36 -12t-39.5 -24.5t-34 -44t-24 -67l-59 -296h-49l142 712h49l-57 -287q53 63 149 63q61 0 98.5 -37.5t37.5 -99.5z" />
    <glyph glyph-name="i" unicode="i" horiz-adv-x="233" 
d="M189 482l-96 -482h-49l96 482h49zM237 704l-12 -60h-60l12 60h60z" />
    <glyph glyph-name="j" unicode="j" horiz-adv-x="233" 
d="M189 482l-118 -592q-25 -120 -135 -120h-41l8 42h30q38 0 59.5 20t30.5 64l117 586h49zM237 704l-12 -60h-60l12 60h60z" />
    <glyph glyph-name="k" unicode="k" horiz-adv-x="504" 
d="M478 480l-186 -180l130 -300h-56l-113 268l-132 -127l-28 -141h-49l142 712h49l-99 -498l276 266h66z" />
    <glyph glyph-name="l" unicode="l" horiz-adv-x="275" 
d="M234 712l-118 -587q-5 -27 -5 -37q0 -46 61 -46h37l-9 -42h-45q-35 0 -63.5 19t-28.5 67q0 22 4 39l118 587h49z" />
    <glyph glyph-name="m" unicode="m" horiz-adv-x="835" 
d="M767 351q0 -21 -5 -46l-61 -305h-49l60 299q6 34 6 51q0 47 -27.5 71.5t-73.5 24.5q-13 0 -27.5 -2.5t-36 -12t-39.5 -24.5t-34 -44t-24 -67l-59 -296h-49l60 299q6 34 6 51q0 47 -27.5 71.5t-73.5 24.5q-13 0 -27.5 -2.5t-36 -12t-39.5 -24.5t-34 -44t-24 -67l-59 -296
h-49l96 482h49l-11 -57q53 63 149 63q92 0 127 -88q68 88 177 88q61 0 98.5 -37.5t37.5 -99.5z" />
    <glyph glyph-name="n" unicode="n" horiz-adv-x="531" 
d="M463 351q0 -21 -5 -46l-61 -305h-49l60 299q6 34 6 51q0 47 -27.5 71.5t-73.5 24.5q-13 0 -27.5 -2.5t-36 -12t-39.5 -24.5t-34 -44t-24 -67l-59 -296h-49l96 482h49l-11 -57q53 63 149 63q61 0 98.5 -37.5t37.5 -99.5z" />
    <glyph glyph-name="o" unicode="o" horiz-adv-x="497" 
d="M442 328q0 -38 -9 -87q-27 -139 -93 -196q-58 -51 -133 -51q-22 0 -44.5 6t-48.5 21t-42.5 49.5t-16.5 83.5q0 38 9 87q27 139 93 196q58 51 133 51q22 0 44.5 -6t48.5 -21t42.5 -49.5t16.5 -83.5zM394 330q0 60 -31 88t-75 28q-59 0 -103 -44q-50 -50 -72 -161
q-10 -53 -10 -89q0 -60 31 -88t75 -28q59 0 103 44q50 50 72 161q10 53 10 89z" />
    <glyph glyph-name="p" unicode="p" horiz-adv-x="513" 
d="M458 330q0 -39 -10 -89q-27 -137 -85 -195q-52 -52 -132 -52q-91 0 -124 73l-60 -297h-49l142 712h49l-13 -62q56 68 141 68q141 0 141 -158zM410 332q0 114 -99 114q-75 0 -113.5 -56t-56.5 -149q-11 -57 -11 -91q0 -114 99 -114q75 0 113.5 56t56.5 149q11 57 11 91z
" />
    <glyph glyph-name="q" unicode="q" horiz-adv-x="513" 
d="M469 482l-142 -712h-49l58 291q-50 -67 -140 -67q-141 0 -141 158q0 38 10 89q27 138 85 196q51 51 131 51q93 0 125 -73l14 67h49zM383 330q0 116 -99 116q-75 0 -113.5 -56t-56.5 -149q-11 -57 -11 -89q0 -116 99 -116q75 0 113.5 56t56.5 149q11 57 11 89z" />
    <glyph glyph-name="r" unicode="r" horiz-adv-x="387" 
d="M422 443l-37 -33q-27 36 -75 36q-58 0 -102 -42.5t-56 -106.5l-59 -297h-49l96 482h49l-13 -64q49 70 141 70q66 0 105 -45z" />
    <glyph glyph-name="s" unicode="s" horiz-adv-x="469" 
d="M424 437l-36 -31q-49 41 -121 41q-64 0 -100 -34.5t-36 -79.5q0 -52 83 -63l65 -9q64 -9 91 -35t27 -80t-46 -99q-56 -53 -164 -53q-114 0 -175 68l37 32q49 -58 143 -58q75 0 115.5 34.5t40.5 77.5q0 35 -19 50t-58 20l-66 9q-122 17 -122 103q0 62 43 105q53 53 149 53
q90 0 149 -51z" />
    <glyph glyph-name="t" unicode="t" horiz-adv-x="312" 
d="M303 482l-7 -36h-101l-64 -321q-5 -27 -5 -37q0 -46 61 -46h37l-9 -42h-45q-35 0 -63.5 19t-28.5 67q0 22 4 39l64 321h-65l7 36h65l31 154h49l-31 -154h101z" />
    <glyph glyph-name="u" unicode="u" horiz-adv-x="531" 
d="M486 482l-96 -482h-49l11 57q-53 -63 -149 -63q-61 0 -98.5 37.5t-37.5 99.5q0 21 5 46l61 305h49l-60 -299q-6 -34 -6 -51q0 -47 27.5 -71.5t73.5 -24.5q13 0 27.5 2.5t36 12t39.5 24.5t34 44t24 67l59 296h49z" />
    <glyph glyph-name="v" unicode="v" horiz-adv-x="408" 
d="M442 482l-261 -482h-49l-71 482h50l56 -421l219 421h56z" />
    <glyph glyph-name="w" unicode="w" horiz-adv-x="676" 
d="M708 482l-236 -482h-50l-50 402l-208 -402h-50l-52 482h51l36 -422l214 422h44l50 -422l199 422h52z" />
    <glyph glyph-name="x" unicode="x" horiz-adv-x="441" 
d="M442 482l-192 -238l110 -244h-57l-88 209l-164 -209h-60l201 251l-105 231h57l84 -197l154 197h60z" />
    <glyph glyph-name="y" unicode="y" horiz-adv-x="408" 
d="M441 482l-329 -614q-20 -38 -42 -58q-31 -28 -93 -28h-25l9 42h19q38 0 56 14t40 56l56 107l-71 481h50l56 -421l219 421h55z" />
    <glyph glyph-name="z" unicode="z" horiz-adv-x="432" 
d="M426 482l-9 -45l-350 -395h278l-8 -42h-332l9 45l350 395h-263l9 42h316z" />
    <glyph glyph-name="braceleft" unicode="{" horiz-adv-x="300" 
d="M358 786l-9 -42h-17q-40 0 -53 -15t-22 -58l-43 -215q-9 -45 -27 -68t-51 -34q40 -23 40 -69q0 -17 -3 -34l-41 -205q-5 -23 -5 -38q0 -23 11.5 -31.5t40.5 -8.5h23l-8 -42h-17q-57 0 -77.5 21.5t-20.5 56.5q0 11 6 47l41 204q3 13 3 29q0 51 -51 51h-12l9 42h17
q24 0 46 19q18 16 28 61l41 207q9 45 17 64.5t25 34.5q26 23 88 23h21z" />
    <glyph glyph-name="bar" unicode="|" horiz-adv-x="301" 
d="M284 786l-172 -860h-48l171 860h49z" />
    <glyph glyph-name="braceright" unicode="}" horiz-adv-x="300" 
d="M280 377l-9 -42h-17q-24 0 -46 -19q-18 -16 -28 -61l-41 -207q-9 -45 -17 -64.5t-25 -34.5q-26 -23 -88 -23h-21l9 42h17q40 0 53 15t22 58l43 215q9 45 27 68t51 34q-40 23 -40 69q0 18 3 34l41 205q5 23 5 38q0 23 -11.5 31.5t-40.5 8.5h-23l8 42h17q57 0 77.5 -21.5
t20.5 -56.5q0 -11 -6 -47l-41 -204q-3 -14 -3 -29q0 -51 51 -51h12z" />
    <glyph glyph-name="asciitilde" unicode="~" 
d="M447 274q-68 -59 -116 -59q-24 0 -43 6t-55 26q-41 22 -68 22q-19 0 -37 -9t-52 -36l-25 33q68 59 116 59q24 0 43 -6t55 -26q41 -22 68 -22q19 0 37 9t52 36z" />
    <glyph glyph-name="uni00A0" unicode="&#xa0;" horiz-adv-x="242" 
 />
    <glyph glyph-name="exclamdown" unicode="&#xa1;" horiz-adv-x="289" 
d="M165 295l-101 -525h-53l107 525h47zM208 482l-14 -67h-63l13 67h64z" />
    <glyph glyph-name="cent" unicode="&#xa2;" horiz-adv-x="473" 
d="M470 539l-36 -29q-39 58 -97 61l-76 -409q64 4 118 62l30 -35q-67 -68 -156 -70l-23 -119h-41l23 122q-68 11 -100 58t-32 113q0 73 23 140t75.5 118.5t125.5 59.5l19 101h41l-19 -99q77 -5 125 -74zM296 568q-50 -9 -91 -52q-37 -39 -57 -101t-20 -125q0 -56 26 -87
t66 -39z" />
    <glyph glyph-name="sterling" unicode="&#xa3;" horiz-adv-x="512" 
d="M538 656l-37 -32q-38 49 -106 49q-73 0 -120.5 -46t-64.5 -133l-23 -115h152l-7 -36h-152l-59 -298h303l-9 -45h-355l69 343h-61l7 36h61l25 123q44 216 241 216q85 0 136 -62z" />
    <glyph glyph-name="currency" unicode="&#xa4;" horiz-adv-x="519" 
d="M433 334q0 -68 -43.5 -111.5t-111.5 -43.5t-111.5 43.5t-43.5 111.5t43.5 111.5t111.5 43.5t111.5 -43.5t43.5 -111.5z" />
    <glyph glyph-name="yen" unicode="&#xa5;" horiz-adv-x="469" 
d="M554 712l-220 -328h103l-7 -36h-120l-37 -55l-10 -51h147l-7 -36h-147l-41 -206h-52l41 206h-146l7 36h146l11 55l-15 51h-122l7 36h105l-93 328h53l101 -362l238 362h58z" />
    <glyph glyph-name="brokenbar" unicode="&#xa6;" horiz-adv-x="312" 
d="M284 786l-70 -350h-49l70 350h49zM182 276l-70 -350h-48l69 350h49z" />
    <glyph glyph-name="section" unicode="&#xa7;" horiz-adv-x="538" 
d="M502 588q0 -13 -1 -18h-50q5 47 -23.5 75.5t-74.5 28.5q-62 0 -101.5 -37t-39.5 -97q0 -67 70 -89l72 -23q97 -32 97 -138q0 -72 -35 -130.5t-107 -87.5q33 -14 53 -44.5t20 -71.5q0 -88 -57 -140t-145 -52q-67 0 -108 35.5t-41 98.5q0 12 1 18h51q-5 -51 22 -79t81 -28
q61 0 102.5 37.5t41.5 103.5q0 71 -71 93l-72 23q-38 12 -67.5 44.5t-29.5 93.5q0 72 35 130.5t107 87.5q-34 17 -52.5 47.5t-18.5 67.5q0 85 58 133t133 48q73 0 111.5 -40.5t38.5 -89.5zM401 288q0 50 -29.5 77t-72.5 27q-57 0 -100 -40q-41 -38 -55 -105q-4 -21 -4 -41
q0 -53 31.5 -78.5t70.5 -25.5q57 0 100 40q41 38 55 105q4 21 4 41z" />
    <glyph glyph-name="dieresis" unicode="&#xa8;" horiz-adv-x="475" 
d="M450 669l-15 -75h-56l15 75h56zM252 669l-15 -75h-55l15 75h55z" />
    <glyph glyph-name="copyright" unicode="&#xa9;" horiz-adv-x="719" 
d="M359 66q120 0 205 85t85 205t-85 205t-205 85t-204.5 -85t-84.5 -205t84.5 -205t204.5 -85zM359 607q102 0 175 -74.5t73 -176.5t-73 -176.5t-175 -74.5q-101 0 -174 74.5t-73 176.5t73 176.5t174 74.5zM363 191q57 0 104 42l-27 27q-36 -31 -78 -31q-102 0 -102 127
q0 128 102 128q42 0 78 -32l27 27q-47 43 -104 43q-70 0 -106 -47t-36 -119t36 -118.5t106 -46.5z" />
    <glyph glyph-name="ordfeminine" unicode="&#xaa;" horiz-adv-x="425" 
d="M411 618q0 -16 -3 -29l-52 -262h-39l7 39q-37 -44 -115 -44q-118 0 -118 90q0 54 35 89q41 41 112 41h120l9 47q4 23 4 29q0 60 -83 60q-40 0 -64.5 -10.5t-48.5 -36.5l-27 29q54 55 139 55q124 0 124 -97zM352 509h-110q-50 0 -80 -26t-30 -71q0 -54 86 -54q58 0 91 33
q23 23 32 64z" />
    <glyph glyph-name="guillemotleft" unicode="&#xab;" horiz-adv-x="501" 
d="M467 461l-14 -69l-150 -131l100 -131l-12 -61l-150 196zM270 461l-14 -69l-149 -131l99 -131l-12 -61l-149 196z" />
    <glyph glyph-name="logicalnot" unicode="&#xac;" 
d="M447 287l-36 -180h-44l27 136h-343l9 44h387z" />
    <glyph glyph-name="registered" unicode="&#xae;" horiz-adv-x="528" 
d="M264 415q80 0 136 56.5t56 135.5t-56 135.5t-136 56.5t-136 -56.5t-56 -135.5t56 -135.5t136 -56.5zM264 771q67 0 114.5 -48t47.5 -116t-47.5 -116t-114.5 -48t-114 48t-47 116t47 116t114 48zM311 502h34l-51 89q45 14 45 58q0 27 -19 45t-47 18h-71v-210h29v86h32z
M270 686q17 0 28.5 -10.5t11.5 -26.5t-11.5 -26.5t-28.5 -10.5h-39v74h39z" />
    <glyph glyph-name="macron" unicode="&#xaf;" horiz-adv-x="475" 
d="M460 648l-9 -43h-281l8 43h282z" />
    <glyph glyph-name="degree" unicode="&#xb0;" horiz-adv-x="381" 
d="M275 435q-30 31 -77 31t-78 -31q-30 -30 -30 -77t30 -77q31 -31 78 -31t77 31q31 31 31 77t-31 77z" />
    <glyph glyph-name="plusminus" unicode="&#xb1;" 
d="M451 312l-9 -44h-170l-36 -184h-45l37 184h-173l9 44h173l36 182h45l-37 -182h170zM400 44l-9 -44h-388l9 44h388z" />
    <glyph glyph-name="twosuperior" unicode="&#xb2;" horiz-adv-x="319" 
d="M346 621q0 -60 -58 -120l-171 -178h175l-8 -38h-227l8 38l193 203q45 46 45 93q0 59 -59 59q-70 0 -85 -76h-42q21 114 130 114q49 0 74 -27t25 -68z" />
    <glyph glyph-name="threesuperior" unicode="&#xb3;" horiz-adv-x="334" 
d="M353 618q0 -88 -75 -116q24 -12 34.5 -31.5t10.5 -55.5q0 -55 -35.5 -95t-103.5 -40q-56 0 -81.5 29t-25.5 63q0 16 1 21h43q-4 -36 13.5 -55.5t54.5 -19.5q35 0 63.5 24.5t28.5 72.5q0 34 -14.5 51.5t-52.5 17.5h-8l8 37h7q46 0 68 27.5t22 68.5q0 32 -16.5 46.5
t-41.5 14.5q-69 0 -88 -72h-42q27 110 131 110q45 0 72 -26.5t27 -71.5z" />
    <glyph glyph-name="acute" unicode="&#xb4;" horiz-adv-x="475" 
d="M446 729l-127 -145h-58l120 145h65z" />
    <glyph glyph-name="mu" unicode="&#xb5;" horiz-adv-x="531" 
d="M486 482l-96 -482h-49l11 57q-53 -63 -149 -63q-71 0 -109 50l-55 -274h-48l142 712h49l-60 -299q-6 -34 -6 -51q0 -47 27.5 -71.5t73.5 -24.5q13 0 27.5 2.5t36 12t39.5 24.5t34 44t24 67l59 296h49z" />
    <glyph glyph-name="paragraph" unicode="&#xb6;" horiz-adv-x="550" 
d="M540 712l-188 -942h-49l179 897h-116l-180 -897h-48l115 578q-72 3 -113.5 51t-41.5 111q0 82 61 142t171 60h210z" />
    <glyph glyph-name="periodcentered" unicode="&#xb7;" horiz-adv-x="251" 
d="M172 299l-14 -70h-70l14 70h70z" />
    <glyph glyph-name="cedilla" unicode="&#xb8;" horiz-adv-x="475" 
d="M232 -68l-89 -148h-61l97 148h53z" />
    <glyph glyph-name="onesuperior" unicode="&#xb9;" horiz-adv-x="237" 
d="M255 712l-86 -427h-41l75 376l-92 -70l10 53l92 68h42z" />
    <glyph glyph-name="ordmasculine" unicode="&#xba;" horiz-adv-x="429" 
d="M419 588q0 -27 -7 -69q-21 -110 -74 -156q-47 -40 -106 -40q-13 0 -27 2.5t-31.5 10.5t-31 21t-22.5 37t-9 56q0 27 7 69q21 110 74 156q47 40 106 40q13 0 27 -2.5t31.5 -10.5t31 -21t22.5 -37t9 -56zM380 588q0 49 -24.5 70t-59.5 21q-48 0 -81 -33q-40 -39 -57 -127
q-8 -45 -8 -69q0 -49 24.5 -70t59.5 -21q48 0 81 33q40 39 57 127q8 45 8 69z" />
    <glyph glyph-name="guillemotright" unicode="&#xbb;" horiz-adv-x="501" 
d="M270 265l-226 -196l14 69l150 131l-100 131l12 61zM466 265l-225 -196l14 69l149 131l-99 131l12 61z" />
    <glyph glyph-name="onequarter" unicode="&#xbc;" horiz-adv-x="721" 
d="M659 106l-7 -38h-51l-13 -68h-42l14 68h-164l8 38l207 321h47l-208 -321h117l24 121h42l-24 -121h50zM613 712l-457 -712h-44l457 712h44zM255 712l-86 -427h-41l75 376l-92 -70l10 53l92 68h42z" />
    <glyph glyph-name="onehalf" unicode="&#xbd;" horiz-adv-x="731" 
d="M700 336q0 -60 -58 -120l-171 -178h175l-8 -38h-227l8 38l193 203q45 47 45 93q0 59 -59 59q-70 0 -85 -76h-42q21 114 130 114q49 0 74 -27t25 -68zM599 712l-458 -712h-44l458 712h44zM255 712l-86 -427h-41l75 376l-92 -70l10 53l92 68h42z" />
    <glyph glyph-name="threequarters" unicode="&#xbe;" horiz-adv-x="777" 
d="M353 618q0 -88 -75 -116q24 -12 34.5 -31.5t10.5 -55.5q0 -55 -35.5 -95t-103.5 -40q-56 0 -81.5 29t-25.5 63q0 16 1 21h43q-4 -36 13.5 -55.5t54.5 -19.5q35 0 63.5 24.5t28.5 72.5q0 34 -14.5 51.5t-52.5 17.5h-8l8 37h7q46 0 68 27.5t22 68.5q0 32 -16.5 46.5
t-41.5 14.5q-69 0 -88 -72h-42q27 110 131 110q45 0 72 -26.5t27 -71.5zM712 106l-7 -38h-51l-13 -68h-42l14 68h-164l8 38l207 321h47l-208 -321h117l24 121h42l-24 -121h50zM674 712l-457 -712h-44l457 712h44z" />
    <glyph glyph-name="questiondown" unicode="&#xbf;" horiz-adv-x="463" 
d="M323 482h-67l-13 -67h67zM118 -236q-63 0 -103 38t-26 109q7 31 28 62t35 44.5t52 48.5q3 3 23.5 21t24.5 22.5t18 20.5t19 26t12 26.5t10 34.5l10 48h51l-9 -47q-8 -39 -28.5 -73.5t-36.5 -51t-50 -47.5t-48.5 -44.5t-34.5 -41.5t-25 -53q-8 -38 14.5 -68t70.5 -30
q79 0 127 77l41 -23q-71 -99 -175 -99z" />
    <glyph glyph-name="Agrave" unicode="&#xc0;" horiz-adv-x="572" 
d="M510 0h-53l-25 173h-314l-94 -173h-57l390 712h46zM427 218l-60 422l-226 -422h286zM410 774h-52l-71 145h61z" />
    <glyph glyph-name="Aacute" unicode="&#xc1;" horiz-adv-x="572" 
d="M510 0h-53l-25 173h-314l-94 -173h-57l390 712h46zM427 218l-60 422l-226 -422h286zM509 919l-127 -145h-58l120 145h65z" />
    <glyph glyph-name="Acircumflex" unicode="&#xc2;" horiz-adv-x="572" 
d="M510 0h-53l-25 173h-314l-94 -173h-57l390 712h46zM427 218l-60 422l-226 -422h286zM514 780h-51l-67 111l-112 -111h-57l146 147h52z" />
    <glyph glyph-name="Atilde" unicode="&#xc3;" horiz-adv-x="572" 
d="M510 0h-53l-25 173h-314l-94 -173h-57l390 712h46zM427 218l-60 422l-226 -422h286zM526 838q-49 -46 -91 -46q-34 0 -66 25q-26 20 -51 20q-24 0 -62 -35l-24 30q49 46 91 46q34 0 66 -25q26 -20 51 -20q24 0 62 35z" />
    <glyph glyph-name="Adieresis" unicode="&#xc4;" horiz-adv-x="572" 
d="M510 0h-53l-25 173h-314l-94 -173h-57l390 712h46zM427 218l-60 422l-226 -422h286zM527 859l-15 -75h-56l15 75h56zM329 859l-15 -75h-55l15 75h55z" />
    <glyph glyph-name="Aring" unicode="&#xc5;" horiz-adv-x="572" 
d="M510 0h-53l-25 173h-314l-94 -173h-57l390 712h46zM427 218l-60 422l-226 -422h286zM502 861q0 -47 -33.5 -81t-80.5 -34t-80.5 34t-33.5 81t33.5 80.5t80.5 33.5t80.5 -33.5t33.5 -80.5zM463 861q0 30 -22.5 52t-52.5 22t-52.5 -22t-22.5 -52t22.5 -52.5t52.5 -22.5
t52.5 22.5t22.5 52.5z" />
    <glyph glyph-name="AE" unicode="&#xc6;" horiz-adv-x="861" 
d="M900 712l-9 -45h-358l-58 -288h306l-9 -45h-306l-58 -289h363l-9 -45h-414l35 176h-240l-122 -176h-60l500 712h439zM482 667l-310 -446h220z" />
    <glyph glyph-name="Ccedilla" unicode="&#xc7;" horiz-adv-x="612" 
d="M590 513h-52q0 74 -39.5 117t-105.5 43q-87 0 -153 -66q-32 -32 -49.5 -83.5t-39.5 -167.5q-25 -130 -25 -174q0 -65 43.5 -104t104.5 -39q76 0 130 46t80 114h53q-29 -95 -100.5 -150t-162.5 -55q-84 0 -142 49t-58 139q0 42 25 174q25 134 44.5 188.5t61.5 96.5
q34 34 83.5 55.5t102.5 21.5q96 0 147 -56t52 -149zM290 -68l-89 -148h-61l97 148h53z" />
    <glyph glyph-name="Egrave" unicode="&#xc8;" horiz-adv-x="570" 
d="M609 712l-9 -45h-358l-57 -285h307l-9 -45h-307l-59 -292h365l-9 -45h-417l143 712h410zM428 774h-52l-71 145h61z" />
    <glyph glyph-name="Eacute" unicode="&#xc9;" horiz-adv-x="570" 
d="M609 712l-9 -45h-358l-57 -285h307l-9 -45h-307l-59 -292h365l-9 -45h-417l143 712h410zM513 919l-127 -145h-58l120 145h65z" />
    <glyph glyph-name="Ecircumflex" unicode="&#xca;" horiz-adv-x="570" 
d="M609 712l-9 -45h-358l-57 -285h307l-9 -45h-307l-59 -292h365l-9 -45h-417l143 712h410zM532 780h-51l-67 111l-112 -111h-57l146 147h52z" />
    <glyph glyph-name="Edieresis" unicode="&#xcb;" horiz-adv-x="570" 
d="M609 712l-9 -45h-358l-57 -285h307l-9 -45h-307l-59 -292h365l-9 -45h-417l143 712h410zM533 859l-15 -75h-56l15 75h56zM335 859l-15 -75h-55l15 75h55z" />
    <glyph glyph-name="Igrave" unicode="&#xcc;" horiz-adv-x="260" 
d="M251 712l-143 -712h-52l143 712h52zM253 774h-52l-71 145h61z" />
    <glyph glyph-name="Iacute" unicode="&#xcd;" horiz-adv-x="260" 
d="M251 712l-143 -712h-52l143 712h52zM352 919l-127 -145h-58l120 145h65z" />
    <glyph glyph-name="Icircumflex" unicode="&#xce;" horiz-adv-x="260" 
d="M251 712l-143 -712h-52l143 712h52zM367 780h-51l-67 111l-112 -111h-57l146 147h52z" />
    <glyph glyph-name="Idieresis" unicode="&#xcf;" horiz-adv-x="260" 
d="M251 712l-143 -712h-52l143 712h52zM374 859l-15 -75h-56l15 75h56zM176 859l-15 -75h-55l15 75h55z" />
    <glyph glyph-name="Eth" unicode="&#xd0;" horiz-adv-x="655" 
d="M623 520q0 -46 -21 -154q-25 -130 -51 -195.5t-73 -107.5q-70 -63 -181 -63h-231l68 339h-76l8 40h76l67 333h218q29 0 55 -5t52.5 -18t45.5 -34t31 -55.5t12 -79.5zM572 520q0 68 -37.5 107.5t-117.5 39.5h-165l-58 -288h169l-8 -40h-169l-59 -294h163q95 0 157 55
q35 32 58.5 92.5t44.5 173.5q22 114 22 154z" />
    <glyph glyph-name="Ntilde" unicode="&#xd1;" horiz-adv-x="702" 
d="M693 712l-143 -712h-52l-265 623l-125 -623h-52l143 712h52l265 -623l125 623h52zM594 838q-49 -46 -91 -46q-34 0 -66 25q-26 20 -51 20q-24 0 -62 -35l-24 30q49 46 91 46q34 0 66 -25q26 -20 51 -20q24 0 62 35z" />
    <glyph glyph-name="Ograve" unicode="&#xd2;" horiz-adv-x="619" 
d="M587 530q0 -37 -25 -174q-25 -134 -44.5 -188.5t-60.5 -95.5q-78 -78 -191 -78q-82 0 -137 51.5t-55 136.5q0 37 25 174q25 134 44.5 188.5t60.5 95.5q78 78 191 78q82 0 137 -51.5t55 -136.5zM535 528q0 68 -41.5 106.5t-97.5 38.5q-90 0 -156 -66q-30 -30 -48.5 -82
t-40.5 -169q-25 -134 -25 -172q0 -68 41.5 -106.5t97.5 -38.5q90 0 156 66q30 30 48.5 82t40.5 169q25 134 25 172zM440 774h-52l-71 145h61z" />
    <glyph glyph-name="Oacute" unicode="&#xd3;" horiz-adv-x="619" 
d="M587 530q0 -37 -25 -174q-25 -134 -44.5 -188.5t-60.5 -95.5q-78 -78 -191 -78q-82 0 -137 51.5t-55 136.5q0 37 25 174q25 134 44.5 188.5t60.5 95.5q78 78 191 78q82 0 137 -51.5t55 -136.5zM535 528q0 68 -41.5 106.5t-97.5 38.5q-90 0 -156 -66q-30 -30 -48.5 -82
t-40.5 -169q-25 -134 -25 -172q0 -68 41.5 -106.5t97.5 -38.5q90 0 156 66q30 30 48.5 82t40.5 169q25 134 25 172zM539 919l-127 -145h-58l120 145h65z" />
    <glyph glyph-name="Ocircumflex" unicode="&#xd4;" horiz-adv-x="619" 
d="M587 530q0 -37 -25 -174q-25 -134 -44.5 -188.5t-60.5 -95.5q-78 -78 -191 -78q-82 0 -137 51.5t-55 136.5q0 37 25 174q25 134 44.5 188.5t60.5 95.5q78 78 191 78q82 0 137 -51.5t55 -136.5zM535 528q0 68 -41.5 106.5t-97.5 38.5q-90 0 -156 -66q-30 -30 -48.5 -82
t-40.5 -169q-25 -134 -25 -172q0 -68 41.5 -106.5t97.5 -38.5q90 0 156 66q30 30 48.5 82t40.5 169q25 134 25 172zM547 780h-51l-67 111l-112 -111h-57l146 147h52z" />
    <glyph glyph-name="Otilde" unicode="&#xd5;" horiz-adv-x="619" 
d="M587 530q0 -37 -25 -174q-25 -134 -44.5 -188.5t-60.5 -95.5q-78 -78 -191 -78q-82 0 -137 51.5t-55 136.5q0 37 25 174q25 134 44.5 188.5t60.5 95.5q78 78 191 78q82 0 137 -51.5t55 -136.5zM535 528q0 68 -41.5 106.5t-97.5 38.5q-90 0 -156 -66q-30 -30 -48.5 -82
t-40.5 -169q-25 -134 -25 -172q0 -68 41.5 -106.5t97.5 -38.5q90 0 156 66q30 30 48.5 82t40.5 169q25 134 25 172zM556 838q-49 -46 -91 -46q-34 0 -66 25q-26 20 -51 20q-24 0 -62 -35l-24 30q49 46 91 46q34 0 66 -25q26 -20 51 -20q24 0 62 35z" />
    <glyph glyph-name="Odieresis" unicode="&#xd6;" horiz-adv-x="619" 
d="M587 530q0 -37 -25 -174q-25 -134 -44.5 -188.5t-60.5 -95.5q-78 -78 -191 -78q-82 0 -137 51.5t-55 136.5q0 37 25 174q25 134 44.5 188.5t60.5 95.5q78 78 191 78q82 0 137 -51.5t55 -136.5zM535 528q0 68 -41.5 106.5t-97.5 38.5q-90 0 -156 -66q-30 -30 -48.5 -82
t-40.5 -169q-25 -134 -25 -172q0 -68 41.5 -106.5t97.5 -38.5q90 0 156 66q30 30 48.5 82t40.5 169q25 134 25 172zM551 859l-15 -75h-56l15 75h56zM353 859l-15 -75h-55l15 75h55z" />
    <glyph glyph-name="multiply" unicode="&#xd7;" 
d="M454 414l-176 -153l118 -157l-33 -29l-118 157l-177 -153l-25 33l176 153l-118 157l34 29l118 -157l176 153z" />
    <glyph glyph-name="Oslash" unicode="&#xd8;" horiz-adv-x="619" 
d="M614 756l-68 -104q41 -51 41 -122q0 -37 -25 -174q-25 -134 -44.5 -188.5t-60.5 -95.5q-78 -78 -191 -78q-67 0 -119 36l-47 -74h-52l67 104q-41 49 -41 122q0 37 25 174q25 134 44.5 188.5t60.5 95.5q78 78 191 78q69 0 119 -36l48 74h52zM488 640q-39 33 -92 33
q-90 0 -156 -66q-30 -30 -48.5 -82t-40.5 -169q-25 -134 -25 -172q0 -44 19 -77zM535 528q0 44 -18 76l-343 -532q34 -33 91 -33q90 0 156 66q30 30 48.5 82t40.5 169q25 134 25 172z" />
    <glyph glyph-name="Ugrave" unicode="&#xd9;" horiz-adv-x="654" 
d="M653 712l-96 -481q-22 -112 -95.5 -174.5t-180.5 -62.5q-75 0 -133.5 47.5t-58.5 142.5q0 24 7 61l93 467h52l-95 -474q-5 -27 -5 -53q0 -59 36.5 -102.5t109.5 -43.5q77 0 139 52t82 151l93 470h52zM465 774h-52l-71 145h61z" />
    <glyph glyph-name="Uacute" unicode="&#xda;" horiz-adv-x="654" 
d="M653 712l-96 -481q-22 -112 -95.5 -174.5t-180.5 -62.5q-75 0 -133.5 47.5t-58.5 142.5q0 24 7 61l93 467h52l-95 -474q-5 -27 -5 -53q0 -59 36.5 -102.5t109.5 -43.5q77 0 139 52t82 151l93 470h52zM564 919l-127 -145h-58l120 145h65z" />
    <glyph glyph-name="Ucircumflex" unicode="&#xdb;" horiz-adv-x="654" 
d="M653 712l-96 -481q-22 -112 -95.5 -174.5t-180.5 -62.5q-75 0 -133.5 47.5t-58.5 142.5q0 24 7 61l93 467h52l-95 -474q-5 -27 -5 -53q0 -59 36.5 -102.5t109.5 -43.5q77 0 139 52t82 151l93 470h52zM572 780h-51l-67 111l-112 -111h-57l146 147h52z" />
    <glyph glyph-name="Udieresis" unicode="&#xdc;" horiz-adv-x="654" 
d="M653 712l-96 -481q-22 -112 -95.5 -174.5t-180.5 -62.5q-75 0 -133.5 47.5t-58.5 142.5q0 24 7 61l93 467h52l-95 -474q-5 -27 -5 -53q0 -59 36.5 -102.5t109.5 -43.5q77 0 139 52t82 151l93 470h52zM572 859l-15 -75h-56l15 75h56zM374 859l-15 -75h-55l15 75h55z" />
    <glyph glyph-name="Yacute" unicode="&#xdd;" horiz-adv-x="469" 
d="M554 712l-281 -420l-59 -292h-52l60 297l-118 415h53l101 -362l238 362h58zM456 919l-127 -145h-58l120 145h65z" />
    <glyph glyph-name="Thorn" unicode="&#xde;" horiz-adv-x="614" 
d="M585 398q0 -106 -67 -173.5t-181 -67.5h-197l-32 -157h-52l143 712h52l-30 -148h186q94 0 136 -48.5t42 -117.5zM533 397q0 53 -31.5 87.5t-99.5 34.5h-190l-63 -317h190q85 0 139.5 53.5t54.5 141.5z" />
    <glyph glyph-name="germandbls" unicode="&#xdf;" horiz-adv-x="524" 
d="M515 578q0 -46 -23 -85t-65 -62q44 -23 44 -78q0 -15 -5 -42l-35 -177q-12 -62 -52.5 -98t-98.5 -36h-57l8 42h46q34 0 66 23q30 22 41 75l36 179q3 17 3 28q0 32 -20 48t-49 16h-49l8 43h38q54 0 85 38t31 88q0 43 -24 67q-30 30 -83 30q-131 0 -162 -152l-105 -525h-49
l105 525q38 194 215 194q67 0 109 -37.5t42 -103.5z" />
    <glyph glyph-name="agrave" unicode="&#xe0;" horiz-adv-x="498" 
d="M432 366q0 -12 -4 -36l-66 -330h-48l11 50q-56 -56 -147 -56q-148 0 -148 113q0 68 44 112q51 51 141 51h153l12 60q4 20 4 36q0 39 -28.5 59t-78.5 20q-48 0 -79.5 -14.5t-62.5 -48.5l-31 34q34 38 74 55t98 17q27 0 51 -4.5t49.5 -16.5t40.5 -38t15 -63zM360 231h-140
q-64 0 -102.5 -32t-38.5 -92q0 -36 26 -53.5t84 -17.5q71 0 115 42q33 33 43 85zM342 584h-52l-71 145h61z" />
    <glyph glyph-name="aacute" unicode="&#xe1;" horiz-adv-x="498" 
d="M432 366q0 -12 -4 -36l-66 -330h-48l11 50q-56 -56 -147 -56q-148 0 -148 113q0 68 44 112q51 51 141 51h153l12 60q4 20 4 36q0 39 -28.5 59t-78.5 20q-48 0 -79.5 -14.5t-62.5 -48.5l-31 34q34 38 74 55t98 17q27 0 51 -4.5t49.5 -16.5t40.5 -38t15 -63zM360 231h-140
q-64 0 -102.5 -32t-38.5 -92q0 -36 26 -53.5t84 -17.5q71 0 115 42q33 33 43 85zM441 729l-127 -145h-58l120 145h65z" />
    <glyph glyph-name="acircumflex" unicode="&#xe2;" horiz-adv-x="498" 
d="M432 366q0 -12 -4 -36l-66 -330h-48l11 50q-56 -56 -147 -56q-148 0 -148 113q0 68 44 112q51 51 141 51h153l12 60q4 20 4 36q0 39 -28.5 59t-78.5 20q-48 0 -79.5 -14.5t-62.5 -48.5l-31 34q34 38 74 55t98 17q27 0 51 -4.5t49.5 -16.5t40.5 -38t15 -63zM360 231h-140
q-64 0 -102.5 -32t-38.5 -92q0 -36 26 -53.5t84 -17.5q71 0 115 42q33 33 43 85zM446 590h-51l-67 111l-112 -111h-57l146 147h52z" />
    <glyph glyph-name="atilde" unicode="&#xe3;" horiz-adv-x="498" 
d="M432 366q0 -12 -4 -36l-66 -330h-48l11 50q-56 -56 -147 -56q-148 0 -148 113q0 68 44 112q51 51 141 51h153l12 60q4 20 4 36q0 39 -28.5 59t-78.5 20q-48 0 -79.5 -14.5t-62.5 -48.5l-31 34q34 38 74 55t98 17q27 0 51 -4.5t49.5 -16.5t40.5 -38t15 -63zM360 231h-140
q-64 0 -102.5 -32t-38.5 -92q0 -36 26 -53.5t84 -17.5q71 0 115 42q33 33 43 85zM458 648q-49 -46 -91 -46q-34 0 -66 25q-26 20 -51 20q-24 0 -62 -35l-24 30q49 46 91 46q34 0 66 -25q26 -20 51 -20q24 0 62 35z" />
    <glyph glyph-name="adieresis" unicode="&#xe4;" horiz-adv-x="498" 
d="M432 366q0 -12 -4 -36l-66 -330h-48l11 50q-56 -56 -147 -56q-148 0 -148 113q0 68 44 112q51 51 141 51h153l12 60q4 20 4 36q0 39 -28.5 59t-78.5 20q-48 0 -79.5 -14.5t-62.5 -48.5l-31 34q34 38 74 55t98 17q27 0 51 -4.5t49.5 -16.5t40.5 -38t15 -63zM360 231h-140
q-64 0 -102.5 -32t-38.5 -92q0 -36 26 -53.5t84 -17.5q71 0 115 42q33 33 43 85zM449 669l-15 -75h-56l15 75h56zM251 669l-15 -75h-55l15 75h55z" />
    <glyph glyph-name="aring" unicode="&#xe5;" horiz-adv-x="498" 
d="M432 366q0 -12 -4 -36l-66 -330h-48l11 50q-56 -56 -147 -56q-148 0 -148 113q0 68 44 112q51 51 141 51h153l12 60q4 20 4 36q0 39 -28.5 59t-78.5 20q-48 0 -79.5 -14.5t-62.5 -48.5l-31 34q34 38 74 55t98 17q27 0 51 -4.5t49.5 -16.5t40.5 -38t15 -63zM360 231h-140
q-64 0 -102.5 -32t-38.5 -92q0 -36 26 -53.5t84 -17.5q71 0 115 42q33 33 43 85zM434 677q0 -47 -33.5 -81t-80.5 -34t-80.5 34t-33.5 81t33.5 80.5t80.5 33.5t80.5 -33.5t33.5 -80.5zM395 677q0 30 -22.5 52t-52.5 22t-52.5 -22t-22.5 -52t22.5 -52.5t52.5 -22.5t52.5 22.5
t22.5 52.5z" />
    <glyph glyph-name="ae" unicode="&#xe6;" horiz-adv-x="798" 
d="M739 326q0 -37 -11 -95h-319q-7 -40 -7 -71q0 -56 28 -89.5t85 -33.5q78 0 144 60l33 -33q-76 -70 -179 -70q-53 0 -91.5 24t-54.5 67q-51 -91 -182 -91q-155 0 -155 113q0 68 44 112q51 51 141 51h153l12 60q4 20 4 36q0 39 -28.5 59t-78.5 20q-48 0 -79.5 -14.5
t-62.5 -48.5l-31 34q34 38 74 55t98 17q119 0 150 -86q60 86 163 86q73 0 111.5 -46.5t38.5 -115.5zM360 231h-140q-64 0 -102.5 -32t-38.5 -92q0 -36 26 -53.5t84 -17.5q71 0 115 42q33 33 43 85zM691 326q0 60 -29.5 90t-73.5 30q-127 0 -172 -176h270q5 30 5 56z" />
    <glyph glyph-name="ccedilla" unicode="&#xe7;" horiz-adv-x="469" 
d="M445 414l-36 -29q-41 61 -107 61q-70 0 -122 -55q-52 -56 -69 -150q-8 -43 -8 -76q0 -65 35 -97t85 -32q71 0 131 63l30 -35q-69 -70 -161 -70q-86 0 -127 50t-41 124q0 38 7 73q21 113 84 180t161 67q87 0 138 -74zM237 -68l-89 -148h-61l97 148h53z" />
    <glyph glyph-name="egrave" unicode="&#xe8;" horiz-adv-x="499" 
d="M440 326q0 -37 -11 -95h-319q-7 -40 -7 -71q0 -56 28 -89.5t85 -33.5q78 0 144 60l33 -33q-76 -70 -179 -70q-75 0 -117 43.5t-42 121.5q0 55 13 110t39 105.5t73.5 82t109.5 31.5q73 0 111.5 -46.5t38.5 -115.5zM392 326q0 60 -29.5 90t-73.5 30q-127 0 -172 -176h270
q5 30 5 56zM357 584h-52l-71 145h61z" />
    <glyph glyph-name="eacute" unicode="&#xe9;" horiz-adv-x="499" 
d="M440 326q0 -37 -11 -95h-319q-7 -40 -7 -71q0 -56 28 -89.5t85 -33.5q78 0 144 60l33 -33q-76 -70 -179 -70q-75 0 -117 43.5t-42 121.5q0 55 13 110t39 105.5t73.5 82t109.5 31.5q73 0 111.5 -46.5t38.5 -115.5zM392 326q0 60 -29.5 90t-73.5 30q-127 0 -172 -176h270
q5 30 5 56zM456 729l-127 -145h-58l120 145h65z" />
    <glyph glyph-name="ecircumflex" unicode="&#xea;" horiz-adv-x="499" 
d="M440 326q0 -37 -11 -95h-319q-7 -40 -7 -71q0 -56 28 -89.5t85 -33.5q78 0 144 60l33 -33q-76 -70 -179 -70q-75 0 -117 43.5t-42 121.5q0 55 13 110t39 105.5t73.5 82t109.5 31.5q73 0 111.5 -46.5t38.5 -115.5zM392 326q0 60 -29.5 90t-73.5 30q-127 0 -172 -176h270
q5 30 5 56zM461 590h-51l-67 111l-112 -111h-57l146 147h52z" />
    <glyph glyph-name="edieresis" unicode="&#xeb;" horiz-adv-x="499" 
d="M440 326q0 -37 -11 -95h-319q-7 -40 -7 -71q0 -56 28 -89.5t85 -33.5q78 0 144 60l33 -33q-76 -70 -179 -70q-75 0 -117 43.5t-42 121.5q0 55 13 110t39 105.5t73.5 82t109.5 31.5q73 0 111.5 -46.5t38.5 -115.5zM392 326q0 60 -29.5 90t-73.5 30q-127 0 -172 -176h270
q5 30 5 56zM464 669l-15 -75h-56l15 75h56zM266 669l-15 -75h-55l15 75h55z" />
    <glyph glyph-name="igrave" unicode="&#xec;" horiz-adv-x="233" 
d="M189 482l-96 -482h-49l96 482h49zM214 584h-52l-71 145h61z" />
    <glyph glyph-name="iacute" unicode="&#xed;" horiz-adv-x="233" 
d="M189 482l-96 -482h-49l96 482h49zM313 729l-127 -145h-58l120 145h65z" />
    <glyph glyph-name="icircumflex" unicode="&#xee;" horiz-adv-x="233" 
d="M189 482l-96 -482h-49l96 482h49zM318 590h-51l-67 111l-112 -111h-57l146 147h52z" />
    <glyph glyph-name="idieresis" unicode="&#xef;" horiz-adv-x="233" 
d="M189 482l-96 -482h-49l96 482h49zM318 669l-15 -75h-56l15 75h56zM120 669l-15 -75h-55l15 75h55z" />
    <glyph glyph-name="eth" unicode="&#xf0;" horiz-adv-x="500" 
d="M442 325q0 -35 -9 -84q-27 -139 -93 -196q-58 -51 -133 -51q-22 0 -44.5 6t-48.5 21t-42.5 49.5t-16.5 83.5q0 38 9 87q27 139 93 196q58 51 133 51q49 0 76 -19l-44 116h-112l7 36h93l-34 91h47l33 -91h75l-6 -36h-57l46 -124q28 -76 28 -136zM394 330q0 60 -31 88
t-75 28q-59 0 -103 -44q-50 -50 -72 -161q-10 -53 -10 -89q0 -60 31 -88t75 -28q59 0 103 44q50 50 72 161q10 53 10 89z" />
    <glyph glyph-name="ntilde" unicode="&#xf1;" horiz-adv-x="531" 
d="M463 351q0 -21 -5 -46l-61 -305h-49l60 299q6 34 6 51q0 47 -27.5 71.5t-73.5 24.5q-13 0 -27.5 -2.5t-36 -12t-39.5 -24.5t-34 -44t-24 -67l-59 -296h-49l96 482h49l-11 -57q53 63 149 63q61 0 98.5 -37.5t37.5 -99.5zM489 648q-49 -46 -91 -46q-34 0 -66 25
q-26 20 -51 20q-24 0 -62 -35l-24 30q49 46 91 46q34 0 66 -25q26 -20 51 -20q24 0 62 35z" />
    <glyph glyph-name="ograve" unicode="&#xf2;" horiz-adv-x="497" 
d="M442 328q0 -38 -9 -87q-27 -139 -93 -196q-58 -51 -133 -51q-22 0 -44.5 6t-48.5 21t-42.5 49.5t-16.5 83.5q0 38 9 87q27 139 93 196q58 51 133 51q22 0 44.5 -6t48.5 -21t42.5 -49.5t16.5 -83.5zM394 330q0 60 -31 88t-75 28q-59 0 -103 -44q-50 -50 -72 -161
q-10 -53 -10 -89q0 -60 31 -88t75 -28q59 0 103 44q50 50 72 161q10 53 10 89zM343 584h-52l-71 145h61z" />
    <glyph glyph-name="oacute" unicode="&#xf3;" horiz-adv-x="497" 
d="M442 328q0 -38 -9 -87q-27 -139 -93 -196q-58 -51 -133 -51q-22 0 -44.5 6t-48.5 21t-42.5 49.5t-16.5 83.5q0 38 9 87q27 139 93 196q58 51 133 51q22 0 44.5 -6t48.5 -21t42.5 -49.5t16.5 -83.5zM394 330q0 60 -31 88t-75 28q-59 0 -103 -44q-50 -50 -72 -161
q-10 -53 -10 -89q0 -60 31 -88t75 -28q59 0 103 44q50 50 72 161q10 53 10 89zM455 729l-127 -145h-58l120 145h65z" />
    <glyph glyph-name="ocircumflex" unicode="&#xf4;" horiz-adv-x="497" 
d="M442 328q0 -38 -9 -87q-27 -139 -93 -196q-58 -51 -133 -51q-22 0 -44.5 6t-48.5 21t-42.5 49.5t-16.5 83.5q0 38 9 87q27 139 93 196q58 51 133 51q22 0 44.5 -6t48.5 -21t42.5 -49.5t16.5 -83.5zM394 330q0 60 -31 88t-75 28q-59 0 -103 -44q-50 -50 -72 -161
q-10 -53 -10 -89q0 -60 31 -88t75 -28q59 0 103 44q50 50 72 161q10 53 10 89zM460 590h-51l-67 111l-112 -111h-57l146 147h52z" />
    <glyph glyph-name="otilde" unicode="&#xf5;" horiz-adv-x="497" 
d="M442 328q0 -38 -9 -87q-27 -139 -93 -196q-58 -51 -133 -51q-22 0 -44.5 6t-48.5 21t-42.5 49.5t-16.5 83.5q0 38 9 87q27 139 93 196q58 51 133 51q22 0 44.5 -6t48.5 -21t42.5 -49.5t16.5 -83.5zM394 330q0 60 -31 88t-75 28q-59 0 -103 -44q-50 -50 -72 -161
q-10 -53 -10 -89q0 -60 31 -88t75 -28q59 0 103 44q50 50 72 161q10 53 10 89zM472 648q-49 -46 -91 -46q-34 0 -66 25q-26 20 -51 20q-24 0 -62 -35l-24 30q49 46 91 46q34 0 66 -25q26 -20 51 -20q24 0 62 35z" />
    <glyph glyph-name="odieresis" unicode="&#xf6;" horiz-adv-x="497" 
d="M442 328q0 -38 -9 -87q-27 -139 -93 -196q-58 -51 -133 -51q-22 0 -44.5 6t-48.5 21t-42.5 49.5t-16.5 83.5q0 38 9 87q27 139 93 196q58 51 133 51q22 0 44.5 -6t48.5 -21t42.5 -49.5t16.5 -83.5zM394 330q0 60 -31 88t-75 28q-59 0 -103 -44q-50 -50 -72 -161
q-10 -53 -10 -89q0 -60 31 -88t75 -28q59 0 103 44q50 50 72 161q10 53 10 89zM463 669l-15 -75h-56l15 75h56zM265 669l-15 -75h-55l15 75h55z" />
    <glyph glyph-name="divide" unicode="&#xf7;" 
d="M447 286l-9 -44h-387l8 44h388zM319 460l-13 -67h-67l14 67h66zM258 135l-13 -67h-67l14 67h66z" />
    <glyph glyph-name="oslash" unicode="&#xf8;" horiz-adv-x="500" 
d="M485 526l-71 -95q28 -38 28 -103q0 -38 -9 -87q-27 -139 -93 -196q-58 -51 -133 -51q-57 0 -98 31l-52 -69h-47l72 97q-27 41 -27 101q0 38 9 87q27 139 93 196q58 51 133 51q57 0 97 -30l51 68h47zM394 330q0 35 -11 60l-247 -328q29 -26 73 -26q59 0 103 44
q50 50 72 161q10 53 10 89zM359 421q-26 25 -71 25q-59 0 -103 -44q-50 -50 -72 -161q-10 -53 -10 -89q0 -35 10 -58z" />
    <glyph glyph-name="ugrave" unicode="&#xf9;" horiz-adv-x="531" 
d="M486 482l-96 -482h-49l11 57q-53 -63 -149 -63q-61 0 -98.5 37.5t-37.5 99.5q0 21 5 46l61 305h49l-60 -299q-6 -34 -6 -51q0 -47 27.5 -71.5t73.5 -24.5q13 0 27.5 2.5t36 12t39.5 24.5t34 44t24 67l59 296h49zM369 584h-52l-71 145h61z" />
    <glyph glyph-name="uacute" unicode="&#xfa;" horiz-adv-x="531" 
d="M486 482l-96 -482h-49l11 57q-53 -63 -149 -63q-61 0 -98.5 37.5t-37.5 99.5q0 21 5 46l61 305h49l-60 -299q-6 -34 -6 -51q0 -47 27.5 -71.5t73.5 -24.5q13 0 27.5 2.5t36 12t39.5 24.5t34 44t24 67l59 296h49zM468 729l-127 -145h-58l120 145h65z" />
    <glyph glyph-name="ucircumflex" unicode="&#xfb;" horiz-adv-x="531" 
d="M486 482l-96 -482h-49l11 57q-53 -63 -149 -63q-61 0 -98.5 37.5t-37.5 99.5q0 21 5 46l61 305h49l-60 -299q-6 -34 -6 -51q0 -47 27.5 -71.5t73.5 -24.5q13 0 27.5 2.5t36 12t39.5 24.5t34 44t24 67l59 296h49zM473 590h-51l-67 111l-112 -111h-57l146 147h52z" />
    <glyph glyph-name="udieresis" unicode="&#xfc;" horiz-adv-x="531" 
d="M486 482l-96 -482h-49l11 57q-53 -63 -149 -63q-61 0 -98.5 37.5t-37.5 99.5q0 21 5 46l61 305h49l-60 -299q-6 -34 -6 -51q0 -47 27.5 -71.5t73.5 -24.5q13 0 27.5 2.5t36 12t39.5 24.5t34 44t24 67l59 296h49zM476 669l-15 -75h-56l15 75h56zM278 669l-15 -75h-55
l15 75h55z" />
    <glyph glyph-name="yacute" unicode="&#xfd;" horiz-adv-x="408" 
d="M441 482l-329 -614q-20 -38 -42 -58q-31 -28 -93 -28h-25l9 42h19q38 0 56 14t40 56l56 107l-71 481h50l56 -421l219 421h55zM401 729l-127 -145h-58l120 145h65z" />
    <glyph glyph-name="thorn" unicode="&#xfe;" horiz-adv-x="513" 
d="M458 330q0 -38 -10 -89q-27 -138 -85 -196q-51 -51 -131 -51q-93 0 -125 73l-60 -297h-49l188 942h49l-58 -291q50 67 140 67q141 0 141 -158zM410 330q0 116 -99 116q-75 0 -113.5 -56t-56.5 -149q-11 -57 -11 -89q0 -116 99 -116q75 0 113.5 56t56.5 149q11 57 11 89z
" />
    <glyph glyph-name="ydieresis" unicode="&#xff;" horiz-adv-x="408" 
d="M441 482l-329 -614q-20 -38 -42 -58q-31 -28 -93 -28h-25l9 42h19q38 0 56 14t40 56l56 107l-71 481h50l56 -421l219 421h55zM412 669l-15 -75h-56l15 75h56zM214 669l-15 -75h-55l15 75h55z" />
    <glyph glyph-name="dotlessi" unicode="&#x131;" horiz-adv-x="233" 
d="M189 482l-96 -482h-49l96 482h49z" />
    <glyph glyph-name="Lslash" unicode="&#x141;" horiz-adv-x="551" 
d="M484 45l-8 -45h-413l61 307l-81 -48l9 48l82 48l71 357h52l-65 -325l177 104l-10 -48l-177 -104l-59 -294h361z" />
    <glyph glyph-name="lslash" unicode="&#x142;" horiz-adv-x="295" 
d="M281 485l-9 -45l-94 -54l-52 -261q-5 -27 -5 -37q0 -46 61 -46h37l-9 -42h-45q-35 0 -63.5 19t-28.5 67q0 22 4 39l47 232l-71 -40l9 45l71 40l62 310h49l-57 -281z" />
    <glyph glyph-name="OE" unicode="&#x152;" horiz-adv-x="943" 
d="M982 712l-9 -45h-351l-57 -285h301l-9 -45h-301l-59 -292h360l-9 -45h-410l14 72q-68 -78 -186 -78q-82 0 -137 51.5t-55 136.5q0 37 25 174q25 134 44.5 188.5t60.5 95.5q78 78 191 78q122 0 168 -97l18 91h401zM535 528q0 68 -41.5 106.5t-97.5 38.5q-90 0 -156 -66
q-30 -30 -48.5 -82t-40.5 -169q-25 -134 -25 -172q0 -68 41.5 -106.5t97.5 -38.5q90 0 156 66q30 30 48.5 82t40.5 169q25 134 25 172z" />
    <glyph glyph-name="oe" unicode="&#x153;" horiz-adv-x="820" 
d="M761 326q0 -37 -11 -95h-319q-7 -40 -7 -71q0 -56 28 -89.5t85 -33.5q78 0 144 60l33 -33q-76 -70 -179 -70q-121 0 -150 110q-61 -110 -178 -110q-22 0 -44.5 6t-48.5 21t-42.5 49.5t-16.5 83.5q0 38 9 87q27 139 93 196q58 51 133 51q53 0 91.5 -27t52.5 -81
q62 108 177 108q73 0 111.5 -46.5t38.5 -115.5zM394 330q0 60 -31 88t-75 28q-59 0 -103 -44q-50 -50 -72 -161q-10 -53 -10 -89q0 -60 31 -88t75 -28q59 0 103 44q50 50 72 161q10 53 10 89zM713 326q0 60 -29.5 90t-73.5 30q-127 0 -172 -176h270q5 30 5 56z" />
    <glyph glyph-name="Scaron" unicode="&#x160;" horiz-adv-x="558" 
d="M543 638l-37 -32q-29 34 -62.5 51t-87.5 17q-86 0 -138.5 -53t-52.5 -125q0 -81 111 -107l70 -16q78 -18 114.5 -57t36.5 -111q0 -97 -74.5 -154t-186.5 -57q-71 0 -120.5 23t-92.5 75l40 35q67 -88 178 -88q86 0 145 46.5t59 119.5q0 57 -28.5 83t-81.5 38l-70 16
q-151 34 -151 156q0 35 13.5 71.5t41 71t77.5 56t115 21.5q113 0 182 -80zM530 927l-146 -147h-52l-89 147h51l67 -111l112 111h57z" />
    <glyph glyph-name="scaron" unicode="&#x161;" horiz-adv-x="469" 
d="M424 437l-36 -31q-49 41 -121 41q-64 0 -100 -34.5t-36 -79.5q0 -52 83 -63l65 -9q64 -9 91 -35t27 -80t-46 -99q-56 -53 -164 -53q-114 0 -175 68l37 32q49 -58 143 -58q75 0 115.5 34.5t40.5 77.5q0 35 -19 50t-58 20l-66 9q-122 17 -122 103q0 62 43 105q53 53 149 53
q90 0 149 -51zM464 737l-146 -147h-52l-89 147h51l67 -111l112 111h57z" />
    <glyph glyph-name="Ydieresis" unicode="&#x178;" horiz-adv-x="469" 
d="M554 712l-281 -420l-59 -292h-52l60 297l-118 415h53l101 -362l238 362h58zM478 859l-15 -75h-56l15 75h56zM280 859l-15 -75h-55l15 75h55z" />
    <glyph glyph-name="Zcaron" unicode="&#x17d;" horiz-adv-x="534" 
d="M562 712l-9 -45l-477 -622h359l-9 -45h-414l11 54l472 613h-342l9 45h400zM530 927l-146 -147h-52l-89 147h51l67 -111l112 111h57z" />
    <glyph glyph-name="zcaron" unicode="&#x17e;" horiz-adv-x="432" 
d="M426 482l-9 -45l-350 -395h278l-8 -42h-332l9 45l350 395h-263l9 42h316zM454 737l-146 -147h-52l-89 147h51l67 -111l112 111h57z" />
    <glyph glyph-name="florin" unicode="&#x192;" horiz-adv-x="374" 
d="M440 712l-9 -43h-35q-75 0 -105 -82l-76 -207h105l-8 -36h-110l-211 -574h-49l211 574h-103l7 36h109l76 206q15 39 29 63t47.5 43.5t81.5 19.5h40z" />
    <glyph glyph-name="circumflex" unicode="&#x2c6;" horiz-adv-x="475" 
d="M451 590h-51l-67 111l-112 -111h-57l146 147h52z" />
    <glyph glyph-name="caron" unicode="&#x2c7;" horiz-adv-x="475" 
d="M480 737l-146 -147h-52l-89 147h51l67 -111l112 111h57z" />
    <glyph glyph-name="breve" unicode="&#x2d8;" horiz-adv-x="475" 
d="M491 722q-26 -135 -179 -135q-63 0 -99.5 32.5t-36.5 82.5q0 6 0.5 12t0.5 8h44q-3 -42 23 -67t76 -25q102 0 128 92h43z" />
    <glyph glyph-name="dotaccent" unicode="&#x2d9;" horiz-adv-x="475" 
d="M358 698l-11 -59h-59l12 59h58z" />
    <glyph glyph-name="ring" unicode="&#x2da;" horiz-adv-x="475" 
d="M439 677q0 -47 -33.5 -81t-80.5 -34t-80.5 34t-33.5 81t33.5 80.5t80.5 33.5t80.5 -33.5t33.5 -80.5zM400 677q0 30 -22.5 52t-52.5 22t-52.5 -22t-22.5 -52t22.5 -52.5t52.5 -22.5t52.5 22.5t22.5 52.5z" />
    <glyph glyph-name="ogonek" unicode="&#x2db;" horiz-adv-x="475" 
d="M211 -210h-59l-29 148h51z" />
    <glyph glyph-name="tilde" unicode="&#x2dc;" horiz-adv-x="475" 
d="M463 648q-49 -46 -91 -46q-34 0 -66 25q-26 20 -51 20q-24 0 -62 -35l-24 30q49 46 91 46q34 0 66 -25q26 -20 51 -20q24 0 62 35z" />
    <glyph glyph-name="hungarumlaut" unicode="&#x2dd;" horiz-adv-x="475" 
d="M379 729l-127 -145h-58l120 145h65zM519 729l-128 -145h-57l120 145h65z" />
    <glyph glyph-name="endash" unicode="&#x2013;" 
d="M447 286l-9 -44h-387l8 44h388z" />
    <glyph glyph-name="emdash" unicode="&#x2014;" horiz-adv-x="829" 
d="M761 286l-9 -44h-674l9 44h674z" />
    <glyph glyph-name="quoteleft" unicode="&#x2018;" horiz-adv-x="267" 
d="M171 534h72l14 74h-35q3 24 18 48.5t37 31.5l8 37q-39 -11 -64.5 -43t-34.5 -73z" />
    <glyph glyph-name="quoteright" unicode="&#x2019;" horiz-adv-x="259" 
d="M263 704h-71l-15 -74h36q-3 -24 -18.5 -48.5t-37.5 -31.5l-7 -36q39 10 64.5 42.5t33.5 72.5z" />
    <glyph glyph-name="quotesinglbase" unicode="&#x201a;" horiz-adv-x="247" 
d="M141 74h-71l-15 -74h36q-3 -24 -18.5 -48.5t-37.5 -31.5l-7 -36q39 10 64.5 42.5t33.5 72.5z" />
    <glyph glyph-name="quotedblleft" unicode="&#x201c;" horiz-adv-x="310" 
d="M85 534h72l14 74h-35q3 24 18 48.5t37 31.5l8 37q-39 -11 -64.5 -43t-34.5 -73zM216 534h71l15 74h-36q3 24 18.5 48.5t37.5 31.5l8 37q-39 -11 -64.5 -43t-34.5 -73z" />
    <glyph glyph-name="quotedblright" unicode="&#x201d;" horiz-adv-x="404" 
d="M273 704h-71l-15 -74h36q-3 -24 -18.5 -48.5t-37.5 -31.5l-7 -36q39 10 64.5 42.5t33.5 72.5zM404 704h-71l-15 -74h36q-3 -24 -18.5 -48.5t-37.5 -31.5l-7 -36q38 10 64 42.5t34 72.5z" />
    <glyph glyph-name="quotedblbase" unicode="&#x201e;" horiz-adv-x="400" 
d="M141 74h-71l-15 -74h36q-3 -24 -18.5 -48.5t-37.5 -31.5l-7 -36q39 10 64.5 42.5t33.5 72.5zM272 74h-71l-15 -74h36q-3 -24 -18.5 -48.5t-37.5 -31.5l-7 -36q38 10 64 42.5t34 72.5z" />
    <glyph glyph-name="dagger" unicode="&#x2020;" horiz-adv-x="583" 
d="M558 499l-8 -42h-192l-92 -457h-48l91 457h-191l9 42h191l42 213h49l-43 -213h192z" />
    <glyph glyph-name="daggerdbl" unicode="&#x2021;" horiz-adv-x="583" 
d="M558 499l-8 -42h-192l-87 -432h194l-8 -42h-194l-43 -213h-48l43 213h-189l8 42h189l86 432h-191l9 42h191l42 213h49l-43 -213h192z" />
    <glyph glyph-name="bullet" unicode="&#x2022;" horiz-adv-x="412" 
d="M302 262v192h-192v-192h192z" />
    <glyph glyph-name="ellipsis" unicode="&#x2026;" horiz-adv-x="688" 
d="M564 74l-14 -74h-71l15 74h70zM127 74l-14 -74h-71l15 74h70zM346 74l-15 -74h-70l15 74h70z" />
    <glyph glyph-name="perthousand" unicode="&#x2030;" horiz-adv-x="1116" 
d="M1050 265q0 -21 -3 -36l-19 -101q-25 -134 -148 -134q-41 0 -72.5 24.5t-31.5 78.5q0 21 3 36l19 101q25 134 148 134q41 0 72.5 -24.5t31.5 -78.5zM386 616q0 -21 -3 -36l-19 -101q-25 -134 -148 -134q-41 0 -72.5 24.5t-31.5 78.5q0 21 3 36l19 101q25 134 148 134
q41 0 72.5 -24.5t31.5 -78.5zM727 265q0 -21 -3 -36l-19 -101q-25 -134 -148 -134q-41 0 -72.5 24.5t-31.5 78.5q0 21 3 36l19 101q25 134 148 134q41 0 72.5 -24.5t31.5 -78.5zM687 264q0 68 -69 68q-84 0 -102 -98l-20 -106q-3 -15 -3 -30q0 -68 69 -68q84 0 102 98
l20 106q3 15 3 30zM1010 264q0 68 -69 68q-84 0 -102 -98l-20 -106q-3 -15 -3 -30q0 -68 69 -68q84 0 102 98l20 106q3 15 3 30zM346 615q0 68 -69 68q-84 0 -102 -98l-20 -106q-3 -15 -3 -30q0 -68 69 -68q84 0 102 98l20 106q3 15 3 30zM671 712l-458 -712h-44l457 712h45
z" />
    <glyph glyph-name="guilsinglleft" unicode="&#x2039;" horiz-adv-x="304" 
d="M270 461l-14 -69l-149 -131l99 -131l-12 -61l-149 196z" />
    <glyph glyph-name="guilsinglright" unicode="&#x203a;" horiz-adv-x="304" 
d="M269 265l-225 -196l14 69l149 131l-99 131l12 61z" />
    <glyph glyph-name="fraction" unicode="&#x2044;" horiz-adv-x="170" 
d="M359 712l-458 -712h-44l458 712h44z" />
    <glyph glyph-name="Euro" unicode="&#x20ac;" horiz-adv-x="618" 
d="M463 673q-87 0 -153 -66q-44 -44 -69 -155h295l-9 -45h-296q-7 -38 -10 -51q-4 -24 -9 -49h295l-9 -45h-294q-8 -52 -8 -80q0 -65 43.5 -104t104.5 -39q57 0 103 27l29 -37q-62 -35 -132 -35q-84 0 -142 49t-58 139q0 25 9 80h-102l9 45h100q5 25 9 49q3 13 10 51h-99
l9 45h99q17 75 35.5 115.5t51.5 73.5q34 34 83.5 55.5t102.5 21.5q85 0 135 -44l-39 -33q-37 32 -94 32z" />
    <glyph glyph-name="trademark" unicode="&#x2122;" horiz-adv-x="526" 
d="M156 684h61l5 28h-152l-5 -28h61l-39 -192h30zM381 492h29l44 220h-29l-94 -134l-40 134h-30l-44 -220h30l32 158l31 -104h29l73 104z" />
    <glyph glyph-name="partialdiff" unicode="&#x2202;" horiz-adv-x="454" 
d="M444 562q0 -65 -45 -110t-110 -45t-110 45t-45 110t45 110t110 45t110 -45t45 -110zM401 562q0 49 -32.5 82t-80.5 33t-79.5 -32.5t-31.5 -82.5q0 -49 32 -82t80 -33t80 33t32 82z" />
    <glyph glyph-name="summation" unicode="&#x2211;" horiz-adv-x="499" 
d="M208 598q15 -15 9 -44t-29.5 -46.5t-56.5 -17.5q-44 0 -66 29l24 21q18 -22 49 -22q45 0 51 35q3 17 -4 24q-5 7 -22 9q-15 2 -24 5q-27 5 -37 17q-13 15 -7 41q5 29 27 46.5t54 17.5q37 0 58 -24l-24 -20q-14 17 -41 17q-39 0 -46 -36q-3 -15 3 -21q8 -8 24 -11l21 -4v0
q26 -4 37 -16zM411 492h30l43 220h-29l-93 -134l-41 134h-30l-43 -220h30l31 158l32 -104h29l73 104z" />
    <glyph glyph-name="minus" unicode="&#x2212;" 
d="M447 287l-8 -44h-388l9 44h387z" />
    <glyph glyph-name="infinity" unicode="&#x221e;" horiz-adv-x="811" 
d="M50 712h711v-711h-711v711zM581 314v80l-334 145v-93l233 -91l-233 -93v-94z" />
    <glyph glyph-name="approxequal" unicode="&#x2248;" horiz-adv-x="1156" 
d="M1103 937l3 -12v-1024l-3 -12l-9 -12l-11 -3l-1 -1l-12 -5h-987l-9 5l-12 4l-8 12l-4 12v1024l4 8l8 17l12 6v2l13 4h979l8 -4l16 -8l7 -11zM1074 -99v1024v4v4l-8 -4h-979l-8 3l4 -7v-1024l-1 -3l1 -1v4h987l6 -2zM574 909q-53 0 -94 -4q-80 -6 -152 -29
q-83 -18 -118 -37q-8 -4 -20 -13t-27 -21t-19 -15q-34 -52 -24 -139q0 -36 16 -62l20 -20q9 -4 21 -4q11 0 29 8l209 90q24 9 3 37q-12 30 -12 33q-7 21 9 28q8 5 16.5 9t13.5 6t16 4t14 2.5t17.5 2t16.5 1.5h65h70q4 0 15 -1.5t14.5 -2t12 -1.5t13.5 -2.5t12 -4t13.5 -6
t13.5 -7.5q15 -7 8 -28q-14 -28 -16 -33q-10 -30 4 -37l209 -90q16 -8 28 -8q13 0 21 4l25 20q8 13 16 62q8 92 -29 139q-37 37 -61 49q-46 21 -119 37q-68 22 -151 29q-46 4 -99 4zM255 12q-10 0 -13.5 -3.5t-3.5 -13.5v-53q0 -16 17 -16h659q6 0 11.5 5t5.5 11v53
q0 17 -17 17h-659zM156 188q-20 0 -20 -20v-86q0 -7 6 -14t14 -7h86q7 0 14 7t7 14v86q0 8 -7 14t-14 6h-86zM251 356q-21 0 -21 -21v-86q0 -7 6 -13.5t15 -6.5h86q6 0 13 7t7 13v86q0 9 -6.5 15t-13.5 6h-86zM156 516q-20 0 -20 -21v-86q0 -7 6 -13.5t14 -6.5h86q7 0 14 7
t7 13v86q0 9 -7 15t-14 6h-86zM345 188q-21 0 -21 -20v-86q0 -7 6 -14t15 -7h86q6 0 13 7t7 14v86q0 8 -6.5 14t-13.5 6h-86zM439 356q-21 0 -21 -21v-86q0 -7 6.5 -13.5t14.5 -6.5h86q6 0 13.5 7t7.5 13v86q0 9 -7 15t-14 6h-86zM345 516q-21 0 -21 -21v-86q0 -7 6 -13.5
t15 -6.5h86q6 0 13 7t7 13v86q0 8 -6.5 14.5t-13.5 6.5h-86zM537 188q-20 0 -20 -20v-86q0 -7 6 -14t14 -7h86q7 0 14 7t7 14v86q0 8 -7 14t-14 6h-86zM619 356q-20 0 -20 -21v-86q0 -7 6 -13.5t14 -6.5h86q6 0 13.5 7t7.5 13v86q0 9 -7 15t-14 6h-86zM537 516
q-20 0 -20 -21v-86q0 -7 6 -13.5t14 -6.5h86q7 0 14 7t7 13v86q0 9 -7 15t-14 6h-86zM713 188q-20 0 -20 -20v-86q0 -7 6 -14t14 -7h86q7 0 14 7t7 14v86q0 8 -7 14t-14 6h-86zM808 356q-21 0 -21 -21v-86q0 -7 6 -13.5t15 -6.5h86q6 0 13 7t7 13v86q0 9 -6.5 15t-13.5 6
h-86zM713 516q-20 0 -20 -21v-86q0 -7 6 -13.5t14 -6.5h86q7 0 14 7t7 13v86q0 9 -7 15t-14 6h-86zM902 188q-21 0 -21 -20v-86q0 -7 6 -14t15 -7h86q6 0 13 7t7 14v86q0 8 -6.5 14t-13.5 6h-86zM902 516q-9 0 -15 -6t-6 -15v-86q0 -7 6.5 -13.5t14.5 -6.5h86q6 0 13 7t7 13
v86q0 8 -6.5 14.5t-13.5 6.5h-86z" />
    <glyph glyph-name="lessequal" unicode="&#x2264;" horiz-adv-x="729" 
d="M116 52l-11 -52h410l11 52h-410zM181 380l-8 -37l377 -166l12 56l-307 128l358 128l11 56z" />
    <glyph glyph-name="greaterequal" unicode="&#x2265;" horiz-adv-x="696" 
d="M526 52l-11 -52h-410l11 52h410zM591 380l-7 -37l-444 -166l12 56l357 128l-306 128l11 56z" />
    <glyph glyph-name="lozenge" unicode="&#x25ca;" horiz-adv-x="1180" 
d="M188 194h-50v-32h46v-12h-46v-34h51v-12h-62v102h61v-12zM279 104l-6 -8l-13 12q-7 -7 -21 -7q-22 0 -31.5 16.5t-9.5 37.5t9.5 37.5t31.5 16.5q21 0 31 -17t10 -37q0 -24 -13 -40zM259 123q9 11 9 32q0 18 -8 30t-21 12q-14 0 -22 -12t-8 -30t8 -30t22 -12q6 0 12 3
l-9 9l6 8zM291 206h12v-64q0 -29 21 -29q22 0 22 28v65h12v-66q0 -17 -9 -28t-25 -11t-24.5 10.5t-8.5 26.5v68zM436 104h-13l-8 29h-34l-9 -29h-11l31 102h13zM385 146h26l-13 45zM446 206h11v-90h43v-12h-54v102zM535 206h11v-42h44v42h12v-102h-12v47h-44v-47h-11v102z
M697 155q0 -20 -10 -37t-31 -17q-22 0 -31.5 16.5t-9.5 37.5t9.5 37.5t31.5 16.5q21 0 31 -17t10 -37zM626 155q0 -18 8 -30t22 -12q13 0 21 12t8 30t-8 30t-21 12q-14 0 -22 -12t-8 -30zM775 140q0 -17 -9 -28t-25 -11q-32 0 -32 37v68h11v-64q0 -29 21 -29q22 0 22 28v65
h12v-66zM820 113q22 0 22 17q0 13 -17 18l-18 5q-18 7 -18 24q0 13 7.5 22.5t21.5 9.5q33 0 33 -33h-11q0 21 -20 21t-20 -18q0 -11 10 -13l24 -7q20 -5 20 -27q0 -31 -33 -31q-16 0 -26 10q-8 9 -8 26h10q0 -24 23 -24zM904 187v-83h-11v102h13l42 -83h1v83h11v-102h-13z
M1011 197q-12 0 -19.5 -11t-7.5 -31q0 -42 28 -42q11 0 17 6q9 9 9 28h-26v11h37v-54h-7l-3 13q-10 -16 -28 -16q-15 0 -26 11q-13 15 -13 44q0 21 10.5 37t29.5 16q13 0 23.5 -9t12.5 -25h-11q-5 22 -26 22zM165 52v-150h91v-33h-129v183h38zM306 -51v-47h101v-33h-138v183
h134v-32h-97v-39h89v-32h-89zM533 -75v127h36v-183h-38l-75 131v-131h-36v183h40zM667 52q41 0 57.5 -26.5t16.5 -60.5q0 -37 -18 -66.5t-58 -29.5h-79v183h81zM661 -99q41 0 41 61q0 59 -42 59h-36v-120h37zM788 -51v-47h101v-33h-138v183h134v-32h-97v-39h89v-32h-89z
M1046 -89q0 -34 8 -37v-5h-42q-4 12 -4 37q0 21 -5 28t-25 7h-39v-72h-38v183h92q32 0 45 -17t13 -34q0 -35 -28 -44q9 -4 13 -7.5t7 -13t3 -25.5zM983 -28q30 0 30 25q0 24 -27 24h-47v-49h44zM867 206h11v-102h-11v102zM1076 700q4 -3 4 -6v-86h-66q-12 0 -12 -16v-329
h-828v329q0 8 -1.5 11.5t-4.5 4t-11 0.5h-58v92q0 4 3 5q3 2 239.5 134.5t238.5 133.5q11 6 24 0q6 -3 235 -135.5t237 -137.5zM907 354v334q0 7 -4 9q-1 0 -77 44t-152.5 87.5t-77.5 43.5q-4 3 -11 0q-2 -1 -157 -89.5t-157 -89.5q-3 -2 -3 -5v-333q0 -4 4 -4h632q3 0 3 3z
M425 561v87h331v-87h-331zM425 436v87h331v-87h-331z" />
    <glyph glyph-name="fi" unicode="&#xfb01;" horiz-adv-x="521" 
d="M353 712l-9 -42h-32q-71 0 -87 -78l-22 -110h106l-7 -36h-106l-89 -446h-49l89 446h-62l7 36h62l22 110q24 120 132 120h45zM476 482l-97 -482h-48l96 482h49zM525 712l-12 -60h-59l12 60h59z" />
    <glyph glyph-name="fl" unicode="&#xfb02;" horiz-adv-x="559" 
d="M353 712l-9 -42h-32q-71 0 -87 -78l-22 -110h106l-7 -36h-106l-89 -446h-49l89 446h-62l7 36h62l22 110q24 120 132 120h45zM518 712l-118 -587q-5 -27 -5 -37q0 -46 61 -46h37l-9 -42h-45q-35 0 -63.5 19t-28.5 67q0 22 4 39l118 587h49z" />
    <glyph glyph-name="nbspace" horiz-adv-x="242" 
 />
  </font>
</defs>
</svg>
